<mxfile host="app.diagrams.net" agent="Mozilla/5.0 (Macintosh; Intel Mac OS X 10_15_7) AppleWebKit/537.36 (KHTML, like Gecko) Chrome/134.0.0.0 Safari/537.36" version="26.1.1">
  <diagram name="Page-1" id="Fkz3y4oaN54sgLCeIJEG">
    <mxGraphModel dx="1194" dy="755" grid="1" gridSize="10" guides="1" tooltips="1" connect="1" arrows="1" fold="1" page="1" pageScale="1" pageWidth="850" pageHeight="1100" math="0" shadow="0">
      <root>
        <mxCell id="0" />
        <mxCell id="1" parent="0" />
        <mxCell id="FS2sx7Fmn0cglkPjXsAo-2" value="" style="shape=image;html=1;verticalAlign=top;verticalLabelPosition=bottom;labelBackgroundColor=#ffffff;imageAspect=0;aspect=fixed;image=https://cdn0.iconfinder.com/data/icons/google-material-design-3-0/48/ic_http_48px-128.png;strokeColor=#000000;" vertex="1" parent="1">
          <mxGeometry x="10" y="220" width="110" height="110" as="geometry" />
        </mxCell>
        <mxCell id="FS2sx7Fmn0cglkPjXsAo-8" style="edgeStyle=orthogonalEdgeStyle;rounded=0;orthogonalLoop=1;jettySize=auto;html=1;" edge="1" parent="1" source="FS2sx7Fmn0cglkPjXsAo-4">
          <mxGeometry relative="1" as="geometry">
            <mxPoint x="220" y="570" as="targetPoint" />
          </mxGeometry>
        </mxCell>
        <mxCell id="FS2sx7Fmn0cglkPjXsAo-4" value="" style="image;aspect=fixed;html=1;points=[];align=center;fontSize=12;image=img/lib/azure2/databases/Data_Factory.svg;" vertex="1" parent="1">
          <mxGeometry x="180" y="50" width="100" height="100" as="geometry" />
        </mxCell>
        <mxCell id="FS2sx7Fmn0cglkPjXsAo-6" style="edgeStyle=orthogonalEdgeStyle;rounded=0;orthogonalLoop=1;jettySize=auto;html=1;entryX=0;entryY=0.39;entryDx=0;entryDy=0;entryPerimeter=0;" edge="1" parent="1" source="FS2sx7Fmn0cglkPjXsAo-2" target="FS2sx7Fmn0cglkPjXsAo-4">
          <mxGeometry relative="1" as="geometry" />
        </mxCell>
        <mxCell id="FS2sx7Fmn0cglkPjXsAo-7" value="" style="image;sketch=0;aspect=fixed;html=1;points=[];align=center;fontSize=12;image=img/lib/mscae/Data_Lake.svg;" vertex="1" parent="1">
          <mxGeometry x="190" y="570" width="76" height="100" as="geometry" />
        </mxCell>
        <mxCell id="FS2sx7Fmn0cglkPjXsAo-9" value="" style="image;sketch=0;aspect=fixed;html=1;points=[];align=center;fontSize=12;image=img/lib/mscae/Data_Lake.svg;" vertex="1" parent="1">
          <mxGeometry x="500" y="580" width="76" height="100" as="geometry" />
        </mxCell>
        <mxCell id="FS2sx7Fmn0cglkPjXsAo-10" style="edgeStyle=orthogonalEdgeStyle;rounded=0;orthogonalLoop=1;jettySize=auto;html=1;entryX=0.038;entryY=0.422;entryDx=0;entryDy=0;entryPerimeter=0;" edge="1" parent="1" source="FS2sx7Fmn0cglkPjXsAo-7" target="FS2sx7Fmn0cglkPjXsAo-9">
          <mxGeometry relative="1" as="geometry" />
        </mxCell>
        <mxCell id="FS2sx7Fmn0cglkPjXsAo-17" style="edgeStyle=orthogonalEdgeStyle;rounded=0;orthogonalLoop=1;jettySize=auto;html=1;" edge="1" parent="1" source="FS2sx7Fmn0cglkPjXsAo-11">
          <mxGeometry relative="1" as="geometry">
            <mxPoint x="733.48" y="120" as="targetPoint" />
          </mxGeometry>
        </mxCell>
        <mxCell id="FS2sx7Fmn0cglkPjXsAo-11" value="" style="image;aspect=fixed;html=1;points=[];align=center;fontSize=12;image=img/lib/azure2/analytics/Azure_Synapse_Analytics.svg;" vertex="1" parent="1">
          <mxGeometry x="690" y="310" width="86.96" height="100" as="geometry" />
        </mxCell>
        <mxCell id="FS2sx7Fmn0cglkPjXsAo-12" style="edgeStyle=orthogonalEdgeStyle;rounded=0;orthogonalLoop=1;jettySize=auto;html=1;entryX=0;entryY=0.435;entryDx=0;entryDy=0;entryPerimeter=0;" edge="1" parent="1" source="FS2sx7Fmn0cglkPjXsAo-9" target="FS2sx7Fmn0cglkPjXsAo-11">
          <mxGeometry relative="1" as="geometry" />
        </mxCell>
        <mxCell id="FS2sx7Fmn0cglkPjXsAo-13" value="" style="image;aspect=fixed;html=1;points=[];align=center;fontSize=12;image=img/lib/azure2/analytics/Power_BI_Embedded.svg;" vertex="1" parent="1">
          <mxGeometry x="660" width="84.63" height="112.84" as="geometry" />
        </mxCell>
        <mxCell id="FS2sx7Fmn0cglkPjXsAo-18" value="" style="image;aspect=fixed;html=1;points=[];align=center;fontSize=12;image=img/lib/azure2/analytics/Azure_Databricks.svg;" vertex="1" parent="1">
          <mxGeometry x="470" y="550" width="42.8" height="46.34" as="geometry" />
        </mxCell>
        <mxCell id="FS2sx7Fmn0cglkPjXsAo-22" value="" style="shape=image;imageAspect=0;aspect=fixed;verticalLabelPosition=bottom;verticalAlign=top;image=data:image/png,iVBORw0KGgoAAAANSUhEUgAAAF0AAACACAYAAABp0WUyAAAKtGlDQ1BJQ0MgUHJvZmlsZQAASImVlwdQk9kWgO///+kktIQqJdRQBOkEkBJ6AAHpICohCSEQYgyEZlcWV3AtqIhgWdEFEQVXpchaEUXFRbFiXZBFRFkXC6Ki8n5gCLv75r0378ycnG9Ozj333Dv3zJwfAIoxRyIRwcoAZIizpBEB3vS4+AQ6fhAgQAVAgAE0OdxMCSs8PASgMm3/Lh/uoZGo3LaayPXv//9XUeHxM7kAQOEoJ/MyuRkon0T1G1cizQIAQRkY5WRJJrgbZZoULRDloQkWTDJmIg8teYppkzFRET4omwFAIHM4UgEAZAfUT8/mCtA85CiUbcQ8oRjlApQ9MjKW8FBuQ9kMjZGgPJGfmfyXPIK/5UyW5+RwBHKeOsukEHyFmRIRJ+//vI7/LRki2fQeDFTJqdLACNRqo3f2e/qSYDmLk0PDplnIm4yf5FRZYPQ0czN9EqY5UxTJnmYexzdYnkcUGjLNKUJ/eYwwix01zfxMv8hpli6JkO+bIvVhTTNHOlODLD1a7k/ls+X581OjYqc5WxgTKq8tPTJ4JsZH7pfKIuRn4YsDvGf29ZffQ0bmX84uZMvXZqVGBcrvgTNTP1/MmsmZGSevjcf39ZuJiZbHS7K85XtJROHyeL4oQO7PzI6Ur81CH+fM2nD5HaZxgsKnGYQAPxAK6KiNAnbAATiivxKQA9AXmMXPzZo4kM8SSZ5UKEjNorPQruPT2WKu9Wy6nY2dIwATPTz1RN51T/YmpE6Y8YkWAOC8Du0hwYwvGc150hMA5T0zPjM82koeAJwz58qk2VO+yV7DAhJQAjSgBfSAETADVmh1TsANeKFVB4EwtOZ4sAhwQSrIAFK06uVgDSgExWAL2AHKwT5wABwCR8Fx0AROgwvgMugAN8Fd8Aj0gH7wCgyDD2AMgiA8RIGokBakD5lAlpAdxIQ8ID8oBIqA4qEkSACJIRm0HFoHFUMlUDm0H6qBfoZOQRegq1AX9ADqhQaht9BnGIHJMA3WhU3hOTATZsHBcBS8EBbAS+F8uADeBJfBlfARuBG+AHfAd+Ee+BU8ggBEAVFHDBArhIn4IGFIApKCSJGVSBFSilQidUgL0o7cRnqQIeQTBoehYugYK4wbJhATjeFilmJWYjZiyjGHMI2YNsxtTC9mGPMNS8HqYC2xrlg2Ng4rwOZgC7Gl2CpsA/YS9i62H/sBh8Op4xg4Z1wgLh6XhluG24jbg6vHncd14fpwI3g8XgtviXfHh+E5+Cx8IX4X/gj+HP4Wvh//kaBA0CfYEfwJCQQxYS2hlHCYcJZwizBAGCMqE02IrsQwIo+YR9xMPEhsId4g9hPHSCokBsmdFEVKI60hlZHqSJdIj0nvFBQUDBVcFOYrCBVWK5QpHFO4otCr8ImsSrYg+5ATyTLyJnI1+Tz5AfkdhUIxpXhREihZlE2UGspFylPKR0WqorUiW5GnuEqxQrFR8ZbiayWikokSS2mRUr5SqdIJpRtKQ8pEZVNlH2WO8krlCuVTyveVR1SoKrYqYSoZKhtVDqtcVXmhilc1VfVT5akWqB5QvajaR0WoRlQfKpe6jnqQeonaT8PRGDQ2LY1WTDtK66QNq6mqOajFqOWqVaidUetRR9RN1dnqIvXN6sfV76l/1tDVYGnwNTZo1Gnc0hjVnKXppcnXLNKs17yr+VmLruWnla61VatJ64k2RttCe752jvZe7UvaQ7Nos9xmcWcVzTo+66EOrGOhE6GzTOeAznWdEV093QBdie4u3Yu6Q3rqel56aXrb9c7qDepT9T30hfrb9c/pv6Sr0Vl0Eb2M3kYfNtAxCDSQGew36DQYM2QYRhuuNaw3fGJEMmIapRhtN2o1GjbWN55nvNy41vihCdGEaZJqstOk3WTUlGEaa7retMn0BUOTwWbkM2oZj80oZp5mS80qze6Y48yZ5unme8xvWsAWjhapFhUWNyxhSydLoeUey67Z2Nkus8WzK2fftyJbsayyrWqteq3VrUOs11o3Wb+eYzwnYc7WOe1zvtk42ohsDto8slW1DbJda9ti+9bOwo5rV2F3x55i72+/yr7Z/o2DpQPfYa9DtyPVcZ7jesdWx69Ozk5SpzqnQWdj5yTn3c73mTRmOHMj84oL1sXbZZXLaZdPrk6uWa7HXf90s3JLdzvs9mIuYy5/7sG5fe6G7hz3/e49HnSPJI8fPXo8DTw5npWez7yMvHheVV4DLHNWGusI67W3jbfUu8F71MfVZ4XPeV/EN8C3yLfTT9Uv2q/c76m/ob/Av9Z/OMAxYFnA+UBsYHDg1sD7bF02l13DHg5yDloR1BZMDo4MLg9+FmIRIg1pmQfPC5q3bd7jUJNQcWhTGAhjh20LexLOCF8a/st83Pzw+RXzn0fYRiyPaI+kRi6OPBz5Ico7anPUo2izaFl0a4xSTGJMTcxorG9sSWxP3Jy4FXEd8drxwvjmBHxCTEJVwsgCvwU7FvQnOiYWJt5byFiYu/DqIu1FokVnFist5iw+kYRNik06nPSFE8ap5Iwks5N3Jw9zfbg7ua94XrztvEG+O7+EP5DinlKS8kLgLtgmGEz1TC1NHRL6CMuFb9IC0/aljaaHpVenj4tiRfUZhIykjFNiVXG6uG2J3pLcJV0SS0mhpGep69IdS4elwdKqTChzYWZzFg0dlq7LzGTfyXqzPbIrsj/mxOScyFXJFedez7PI25A3kO+f/9MyzDLustblBsvXLO9dwVqxfyW0Mnll6yqjVQWr+lcHrD60hrQmfc2va23Wlqx9vy52XUuBbsHqgr7vAr6rLVQslBbeX++2ft/3mO+F33dusN+wa8O3Il7RtWKb4tLiLxu5G6/9YPtD2Q/jm1I2dW522rx3C26LeMu9rZ5bD5WolOSX9G2bt61xO3170fb3OxbvuFrqULpvJ2mnbGdPWUhZ8y7jXVt2fSlPLb9b4V1Rv1tn94bdo3t4e27t9dpbt093X/G+zz8Kf+zeH7C/sdK0svQA7kD2gecHYw62/8T8qaZKu6q46mu1uLrnUMShthrnmprDOoc318K1strBI4lHbh71PdpcZ1W3v169vvgYOCY79vLnpJ/vHQ8+3nqCeaLupMnJ3Q3UhqJGqDGvcbgptamnOb6561TQqdYWt5aGX6x/qT5tcLrijNqZzWdJZwvOjp/LPzdyXnJ+6ILgQl/r4tZHF+Mu3mmb39Z5KfjSlcv+ly+2s9rPXXG/cvqq69VT15jXmjqcOhqvO15v+NXx14ZOp87GG843mm+63Gzpmtt19pbnrQu3fW9fvsO+03E39G7Xveh73fcT7/d087pfPBA9ePMw++HYo9WPsY+Lnig/KX2q87TyN/Pf6nuces70+vZefxb57FEft+/V75m/f+kveE55XjqgP1Dzwu7F6UH/wZsvF7zsfyV5NTZU+IfKH7tfm70++afXn9eH44b730jfjL/d+E7rXfV7h/etI+EjTz9kfBgbLfqo9fHQJ+an9s+xnwfGcr7gv5R9Nf/a8i342+PxjPFxCUfKmRwFEFThlBQA3lYDQIkHgHoTANKCqRl7UqCp74JJAv+Jp+bwSXEC4MB5AKJQDV8NwF6vqRFXFbXhqEZ5AdjeXq7T8/Dk7D4hNnXo54RvTEQEs2NAH/xTpub6v9T9TwvkWf9m/wVWVAkatJpGAgAAADhlWElmTU0AKgAAAAgAAYdpAAQAAAABAAAAGgAAAAAAAqACAAQAAAABAAAAXaADAAQAAAABAAAAgAAAAACJY7I+AAA6vElEQVR4Ae2daZAc53nfn+6ee2Z39sQudnGDIAEe4ClSoihKFEVKVCTLlpVKXLLjRP6WSuVLKpc/OVVJKlVOJfmSqsSVsmPLcVwpK3Zsi7YlkxZFiqRIgpdIgsR9YxfYc+6rp/P7v71LghSxWM5iTKgKLzA7V0/3+z7vc1/tebc/Gtn18bcKAf9v9WrXL+YgcB3oHwMiXAf6daB/DBD4GC55HdOvA/1jgMDHcMnrmH4d6B8DBD6GS17H9OtA/xgg8DFc8jqmfwxAT6x1Tc+PzA/NElHXvKhlXb9rkRdYEHnGJ+6nnvPcRObxNurqjR4r3+nDDwyO/KlPolXvj9/mO8+CbmCNwLNkN2Htrmd+4FvozsV8ONjjGvrbdZ95lmCOTIl5RtZiwqmowfuQOaf5gpNznP6tXmZ1DqufeHzv5rB6gM7td9xc3MJ4FX8Vzz3QHMIkc/EdTNrAqePmEuiXH1jfT79dE+gW1u2GdMs+vWPchpMA22uymKSlugAhwcm5UOD7xn++07MIp2vpIOE2oMvkIh6+Fs13WpwF701iFfw6Ro9sp2H1RGBhmLEaQHv1xJJ9byawdpTkR5pqvPR3YeNO5VkY1IydsXtzNbtz56BlLW9+t2Oplm+1RGRdkKbLdEP+xHOKwd1qt9x1tSHuu1Dz0Ekja7rX+i0PkEmfr143jNoO6AmOabOuSiJhp2qRnWznreOn3KzW+rMm0IfChP39PQXbmy6bz+Qjdj9MgIGgdy7oOCRwABWWBYEluLjHd4lOzQKwMwD4MRatTtcsmbwUE+LFrAK/3R22RqoBAJKWDFt2Sz5jh6vLdmIpCwZrQ8Esd/Dq+fSG84HmY0FkX983YDcWG1btZi0Ku5ZsAuSw46jAARbIhQIgwOdra3O+yG2IPgNH+U7AF8WKkvW6E4bvfh5vQNdqUcD3bUtxbq5iod+0yXTazlzk+LWgvfLdmkAPOfHWkZyNdkMWnbeExyUg+yxsoAVAfbArmVjFcEAigAP8dD7GagHcPbiYnkUJnvf+aQnDu8JAHgm+K1rNGrAwzzK2P5ewr+/s2n9/GQAIOCJevhMLEt5Bb5A40GMuX5io281FvgMgBa8NKJrWTOZAFn4L4DodbY7YZIzxXBAAJR2AoxXAdsFcbZIDPAdqTtogYbmnebrjgEHHd0jQdp/5lgkrNgqypGGHzSCzAtrLP60J9GW/YD86vWyJ8Y5lojLANmvymGEi9SBvnsNm2A7ADHzhUgyOEN6vN+6T1eeVOSQc0FbesJgYZwVIKMWrmAdLyCWWecCbYRH3DA/YHxU6Vq2CjfqZ+33MxjyQwYfUU+mUfWYqZcl21RosvM7nM0xUpB+x2eElWBwKsGKPbEBTPFnfhcL4+Pxd2Gek+XMewO0eHc7Hkh3FRPDvZFQDyxsgIOdhKkDHTjdSVg6KKwtb+2lNoFuQtB+dC+22zUO2K9EEk30724jsjw5esDl2OxZI8V+xa8cpeQ7ZgBWQu6trQavD4xzvH+99lwqbYOWQPbQnZd+4JWtZZMhOL29f2luz33mptAJApKZYDZgI97c01PHQlqTt3TxsOTDOayfs2XN1+8sjkH5UASAATgB1c9AMAbIDMK98ZA+TiRUAzUoCNX54EddhCPBIrhjgvNdpRsKs3TuatIkUWM9uzHsD9k41BRWmmVbL/W6tP2sCPRku2zHL2YunFm1iwizPBQYSiKn8qP1wNmUdx2DdtB356UICfgQm6VmLcGPlSa+7AGkVzPEx8SH666O1iEdWjy3Y3tGU7SqGlotK9vBYYH9SSNtcVXIkxe/FWsSOulZIBfbVzQ3zqmbLYOSFhmdPnqjYT2pFjkLjQoNxOMxmx9cFqCsXlrAV23MQdd8KIcQSeYpQGjT/FSTRa/d7/oxmloFDaIFYEXM4XQ/sVKcIZVatDaJeaXwQ7d53vO9JZSvYa/NZaw5M2vhEwabGUvbY3lErZDnUa1kahAiR2CG8PIRLtP007xOoUDzg+e4BS+isPEI+B1zuEfJ86aMNmYbIjGOttP1ohkUlByyZztj2wcC+coNkipaOTAAq4rXiz5+dTtmNWa6vz/yMvbJk9kYtZY0kQjFi/m4Omg/zcw9tV/zQZxKmHQDbdvPj7JynzaOVyADkLEjCOcDgqJtCVYblIbDv2JSw6UJgQ/m0tXMj9nYjb9WAucLq1jPWBLomrB0/V/PtlfMlhAQ6MRfdUwjt89sylgBThD+JLqoXr+Ihfr7yYHlOu7jk2YN83/2n15c+2CxxyHbo2ctnlmymjK4NsnURjA9vCWxbDh6uc4PBPrx1U7Jtj+wqIMw9+DqYDoN98WzJamhdYsK+Qe7MLH44McxrPXNePYTIwmptpnbQPVbmzOfS9YXJvlgNr300tr3Zpm0rSDMDNvz4JHOcaXI9WGMkeK1jrELqQw/tQq5pyEgq0vNnanYGXhahrQwEDfvGDQkbTwfowWyE45fCDHTUD2gnH3riy3woLh1EMQs5Ufbt2bMtqFvnD217vmVf2TdkadTWTFjGAGraZ7bDgnJNrone3GjZy/Mde6skIRlZugO2Oohe5mJX+NjvQCkykBCWAroMwyQb8PC4WapdsQba0CLs8AjzrLO5SeZTgzLWM9YEurBBRkKHhR9GOj9/gVMm0+joZvtSVXtkaxZlog3uiCLAFDYHFNrAkNADaCymAi9+8hRU1kpaNp20Ab9ln92Ztx1ZFs+lplIdexQ2N5qFCRTQWNAcfnCmYQsRiAFLMFmj2Ba9DgnpmAxQLcHwAOraP5S07ay7mMlYMj9gJ8OcHYcV1iXbhOXr4Oeaz5pAh5twInYPsluOUvbUyZodX0J9A4vgLPa1G7O2JVl3fDFgp6XLgu49D49zRJ70XPR0FnGoHNjjby/ZXN2s0uhatrVsD+8etkFI/b6prA2hrSwu1+zCct2eOtu01xfZNLBbrooWAlfmT69DrAWyhquwUKA0AtDvga22O01bqrTtbKluLy+EbDL2CoBqf4TrBd7k7t+4/MTEsUXyWHAspNps2QCAGWYxzSYGCEBYhOUcXWaC4Lu0AvHoXtFdlIUWjIxg5zhNC8CXSsu2b/OIFcFaGUJ5mHdpqWQP7hi0yVSbeSXtYlS0339rGTMcyoOXB9K/YQsw2pX5XH6Fl/smEn8H2ilMV7G3femm3RQu2nKrYWVM/neqvr1aS+KukNyIN9pzglTrX3usieldL4t2Ugec8WFtWM1L5yObryfAdt+aAOfeTQWbYELCDD2SfHbly374pLo+5n+3iWXXRJzqmh073Uzb08er1mp1rFlr2mi4ZF+7IWtb5W9pYyk3O3bgTGhvYTyJzKQCykFnHuQhFtPjiOVTg3OkrIhg35LGCm/WrIpKWkWMHK6i2oIgYIITzT76+XrXvSbQpYXEmM5hrKmDUXKuFtqBpRzqG9eDh23OtrEG05ZloZpobOYLAD0MfiZCcX4WrYD3Nfww3ztr8Hb5fBJYxZFtG+xYOpVwLrCLbPL3TtXYFOYjVsDSpT7GFCdNpLfhQ9GoSiBBaDtTddtkFfRyGVZdO9YesHn0Y7ism3ACnh4wj66jjitf7wpAF/kG2kzwTsoWkpoLvHy+bk2cW4lMwYYzkd2/NWfTOV1MOq+D1ZWv/CFHSCaE6MzaXKfayTBBjTzb8O2pM1jEmQFLI8QCBGuSR5TJ2SuLnh2tIOigEp+5xnOQYEcuSNXrcTjVtJuxYrJjt6OX7xgt2sj0Fts0Nmmz/gAanSAeb66T12y0I851XG9toHOCVaPT54UPOcn4OVNr2/Pzchh52Kuh7R7o2L1TkDYaBkqmm8w6rn3FQ8QrxS7kaPrrU+jEHcx2/OVyquX8hi0ib544ibyRkQUVdLCEu86CXAGISKXHEaLzBwjJHdmGbUNZEMZXmc8s/Pw8LK0daJ0pZ0XrMo6mdNl1jCsCPYLFgDJgO0IVVa7J4pbAvr84zYW5SBrtrIja+NCOlO3EcJCL9GoN5+XTyQD8mUbC/vp0zTycW0V8+QPprp2fv4BxIhsVUufh1DYAo//x6B3oAby8gGPr9oHIBrC82wC9g6v4wFJkS8CgJfWYTRYXENJ/lGWvDfSVOeuEjl+JhLhgmEjbsUrCnp/BOZov2GAuZzdPjNijU6h16LRXa8R+kVg4+hhAf3MC9ZAARyGXsoFCwfZtn0KmyMKMhbcMqas1JLP2Y3htLcBUA2RVKod31exoq4DejjqKPBMlrgLcWeQg5nrGmkd5YimctcN2yl0rOe0Gm+FBen9+rG2HKpFV6m2LKi373Oa0TSfL7yHaemawzmO6UNxcFb39YAWs99GVG5ZrN1Ad4fFYsYHUNRkP4uPvInjvm5DHzXznIAosVql8L+UoZ88v1q3Ca13A2STMSXBBkWNwLfl51zHWPEpSWVqAdFbnY+YiHtJbjwDSOg4QnjnXtAa+jnSjaROFAbt/e5bQ3crmrGMC6z2kxWIT8PYfnI7sJ6UExhLLbDTs3q0ZG8L7JmeU3GeyLIT5AkyM/+u9wvuP257tWB61s16pWanesCOLDTvZyiPT5GuSQquIFGqykJHPhPUJYLKeseZRYinvqkGiI+3mu4+ONYhd/vXRGi6CAP8DFimO/Ue3FoiiECdF5cp1ZOzwG6lSzqWLAOh1dFJWR5acr3n2oxN1K0HKZYLDmwmufGU74UEW3sbL6GPMKHgdI8raF5MxlwBh3LEI5wjqTUM1Ug5uK0I9WJ9dzjfX9u01fDpV/ObpELcHwlrsRIDmBQ/9IbK1TmS7ItBjUlqBm869MkKsRZHY+YphnCxbNYHKxq5PZzx7YDrtFq4NkhUJbvArxwFXf/6RnxXYlvraZtFvnG/Y6SruYTyeGYDyadja1gzUh/GmIIlDDSHJJfP9sAt6wkyHEDyjZys4IsDtSTVtCkGdQEZ0Me9niGbNyG+tM7vTrkgRrhF7SXX2eKM/7Dof/GxNoH/w4EvfY57A7zBeUMxfPFW2EyUi6G1cA926fXkqtGH8EVUm7WLjUQY7C2G0EV8ImAwBOR56HI3l+XMYUS2UOBY+gSvgEWyFoW4FrBVwpG1h2LAJa41YXiEDUA6U3GBgudjG/cN49nF5tLptWwrTdqTCWjhVig2XfbLR0TPQteMtMMVDip8kaPAiHkgXXcevvCdbtUd35vA5Y1xJuIDtTuVcJ/l92KI8sgPaYGWI5lCBrT2FR3GmjbcvpcBw2+7b5Dn3r/R4CTYX1LjC9Rxb0SY5agyJA7fs1oJnU4mSZfitn8zYGQykM50s1yXqL6RxdsCHzXD9n/UMdB+sMAwlpTAs4U79MZGe2RYkD5sRBXx5e+TcoCLfdFc+DP0XFvY25M5tY/qFUAy7aWea+PjP4QMCN/0gtLFkze5GqOZ84naAB8nqtK41r+Z8/zj0HJ/u4Els2D3ZlqW4WIJ11NFY3ql7tiSDDxslJCcHfrPmKdfzZc9AFysUOUbsfBPgi+RfX2BO6LN+Nm+7Bpv2JRJ/CmgA5GuBKVLler6c4+exnS0ZIapCoJ6u29nOgNMg0pz/E/D2PWgdysAS9rrHFaEgs0peI1nWXdueRHgig/Ak42wL7CQumA6sUrrQ6vWveMorHNAzFGR254ngEMlkOvhkgOnzAEHPQUa+Ed8+v2vUtuIi6ELyInvx0F6HYrDyp/hsonJf5GCaaUV24Fwbf0zKMrh8dyFM7yMrYEDYL37u+Pvlryhbw+N8WkMRxWDvprQNkGuTRAsKiJEeq3fh5XgSYTWaeqIjShXwNzZ6BrpCZHX4nPiiBGQbh9M7S6H9aB4AiDwBwrZhj2gPapYEAEFnGes9DzA3DpIgyFi3ghXLqHuPn4KtRVwDXj+ID/2Bad92FWA6CN5AyL6i3jnVlXnoWQDUQ4E2mJ9lYH+3DbZtT65rGUWJ4OWHonE7WsetgYT12GAPKtU1HYX3vIj4hxsAOgsH0MICAVP5IriF7K/eOGMlaFPYk8cd+uDOgm0fYIVyfSIMex0O4IBIckFb6PwsiRSqY2hPvD2PC1haBcFq/N53orImAbpb3ApiOp1av7sEak6vhjKHERM3k+4xiK1RxwiTWvrybIWYpzYYBHIeSwE93iydZiOjd6CzeKGL9HAHBP60EDbHlrr29Dk+Q+cdQnu5dTi0B7cGliEVT/mNV2s4ZxgAkX/miePwdrA9QIIXUtgJO4dsW5ZIvosioYU494XTCd93eaVXaJ67CcPtweTHEiCBNWvnmh6bSc6MQpU4vuQOidfIObBFNjo2AIUYC0AoJgYCMasumLdsBfu91+tWxoprY7ZnYD2fI01iW64NPQgbNz50SQFLQ5lbJ9uD9ueHlq0i4wjhPk22wgNTSTQZ6AKkiBFDfDlGez3pIXf1ELLmnjE8iUpMApEUpHhmhpgwrts2ARSH3oDc/dRd2F12Q396B7om7TBIZBdvgMuGBVPermTtTw7VbAkdVzksW4ppe2gKj6RUrqswHNatYLlO1yDZ6WkC00eWO4ar34Jmwz417ttWkjrfAzoTBqBA0c1AyIJEsv2ZJagCJRM2U0fkHFls2ZFG2jqojOLjsi9CDpaLOwaWu7o7R69/NgB08IKFCzvIe3LXV76Uhizq//t2046T+aQsKqWg/Z2bBmxLCn+4O+Lq/lFAG88AgG9gOMnriIFD0PrzKx5IIUck7+MqpnN5zWMMlvfglG952FKXjashVF9axJkmWcUa4gA58gmJLH7uqFovNjh6BnrsTpXOzCkww7WMBKQt8k5CqqfxyTx/roXqlWJxdds9XkCFzKLysZqrPLTtEa7dFy90bQE/SSadtQLhvM9sTdnQgBRI8X43xXevrGncNGS2faSAxkKME43lXN3HuiY6hsYjluQqUEQZQFvY/rEDXfxR+X9u412mqkpAYowXm2mQSfDdN+bscAl/Mz6ZgEj6V28sEuCFz+ISJTcMkn0vEABY3gXIR31BGidZdCk7RZbC35wkF4bMgTITG2Ujvrw1zisgTwHsTUAFcUpdEov1M1tSliOlIkI1vNAM7dmLCgHyWUdaVpxq7ZgKLFKbxNMGZvneqnrGdOFrXPMjcEG6eu+4nvRgLZAcPzDnx8eXyKbFA4kY3Zrr2FduGgQrO2wQ2IRfWtafluKwyJ2lhz+6HqGeDk6X12bJCuskSaHW5pp9cjoJW6vrCsxJlCil07c7hlrMByyWDo7L+HS5TXBEFCHqVQp1nFWgucWZBfI4am4bp9Segb4WaLrwVLmHlnB2PX2qaheCQaoz0jaea9mv3JG2iQyb5JPGIRkgbOd4/et5YDUq11Dy5SjuiBcXPCugnmbI/9uK6vilG3I4s5RPI+TwSRdp2s/t9KijwkqmbKWMavjGQtdKYQo8b0Ol+Z6nsp4f9gXoSl9oQ8oh7ObNZQLKx0nSgcVEBDl25kr29Rup4oCEXZ44LMAFHRTo7XnA07ER2hKGsLUnD1eIamErkAeTpHjsrvHAdpDxG61oI3ePRrgMwHooTanRh4iAHYGXd5TmzcaBA30dfQG6claM4LUmv4A/+okjxDXlk4b8G426fW1HwvaB9SJkOcM0VhP1e1mth0vCummwneUAxDO4mp8427ZlsrEIXqGDN+3ezfBq+PgImtT9mzDk6i0rkao1Q9zv+fM1m0MmSJmUXPKQOf0cfQG6Ijzin+KHEmCH51p4BDtW6uaoD83ZjmTLvrgtbXnyZFys0bGWjS00ZrdgM+dqQDVPnSa6RNalWE4KZ5mw+0ZyWO4aITIE1ouvK6p/vJEkSKFQXyxbHA/fiI9oHbvVH6BDpslIfm1OD7o3SIn73ltLtkBxQQsfif49tD1nWwpxsME5kjaS1w5PjygrTBHpkaGGHmUz1AA9TU69Kue0IdOJqn1q0rf7Jigk41pp2BqpkPbyuSqRfsVH5dchwYgCB6eqrAN4vR7SF6DLP+FShwFwmhhmi2DAW8tZ3LBVuA41Q2iWO0YpQ9xVJI1eFEGqA9pGJMDrgWkOQ+ZTCdr4M9kFCpwECEOpfYEqLVYeSQCWlGoBzw7g0yqTUT7kX51qkRWWcRV3SRxZ92wasL2UWyb4roOHVMVZ71Av1HKJpvwe1iTArzOo3yvMhYp9GKS/KX0jgycmIJLTwvyv8O67b5bRDHC7Fj0b5PGZfUW7qVinqqJiLfh9GviS60+lA0EFKiEynEM1TWmeVXyghwXKFNUz72FPHnkpERlYwu7QbRSyAh6voMk86W+vHj9nhYEMmhOGEHJkFG0mQ41SF5//D2fKZBXwWjWxbFQCBEkRgPbJMujnuDoeqA/OEKTpoAoqDKYaS6VjfJLi2i9Qfe2V4bosOsFndxF1/zefylLijWcbthCgRqq8UKQux5OeV1XJCPNe7MqxAanKPMQQ9L/l0mc1ifg3CiFqdNBeCpQDh/UyIoaSSFC4DWsjFZXkfiJNE3ncuQl7oUyVNXxf7oMWqqaCLuxB34bXj2aYMqEVyE3gP6co0fYUa/afHsvbPaOU07AhKBHwfABItkBHvFQuWMw9qZhy2a66bd2q+V5k3wH7tQF6GwOeEzH0WkDXs77kr7Vb8HZYkM7TZhOlksqyaQFoCAjA8xs+T8G/L1bH7T++U7M3yYNPQKHK80l4ZY5ZX/2Qm8RH/NMXTM8Q1qpB4glYibztRSLsgxlcBlRtZAMKbEFEKYstsKwDZilfJglrSIuZKh5J6EwAU3m5K7TVRuh8pD+4+n33OXCEHSijV+cSVgvwyntRaXpseZplqRgpU/ndRDtRQ4mUjtfvOFZujDTsaiCLtoUbQJiuEF4KhKAGuG+jL6euo4pF8NwOOnqSDUiQsd8AU8tyjwLcRYooZinEbeMME2bFCTuQtdiCUNX9ESbHgk3A7GLaq7dAXN0sQwrKcEBXuTkOqZU8QlFD3LWC3wvBeV8FkF2wPMFD5TF5SG2YDah7wy5Xx29LQEMBfK6qZwrf+8pe+gL0FBpGwwm22B2wsgwron1UiZ0+c7pkf/DygjXSQyyOamcBkDQOgWgF6jG74J2Aq89UVvjufugXsBz3HR+22DhRhsvucjYCv5BlpiNIBNVsYh6NkKQU8T7Y3Ne2km5Njk4LD6g8Q1QXoavzG6YAnfFvIxayu/Rl//QF6G3QRtF4OZlasAuXqA/rCNE6cHfYEnmJr1eoVyPtGNOVo5TXrnJy8ksArthN1yVpSnSyeH7bQRtx+A21qFOFB3Cdegc7MXR0x1YAqFgXVQMIcp55ZKQyIl90Jnct+Pg2appUSRWRjaagh7pZqAJEuS1q8CAk0P9+jb4AXS5QhY81b5kmApCrME50XP56RlEZv4QGw4qxUrvRsEX0gQk6Z1gsdaAIX1e+IjhFeAgD6RuAHPYj37iygrWlSqETsJNgdRtVL8QoY8fcVRMANMDX0wjGeI88ANhK2xDKyxoNMKgc30ZVVVRIVKT5iqFp/v0cfQH6+ybMAjqojpVqBd7acCXkJdBLAIsQrApAJMmhaiqDyh/lvYDSJJAtZZOUiKQE8QBJQGVyUvKWAosTUuvAzhp+8Dry4hDYXMU122rR4wUduwnradN3pYMhliNDq6WeNLJaoSq5lVttjmtSwQekQ2TFKooI8G4I6O++WfnsKj71H+hMVuw3gM2Igpt+FosQfwhGUA2NokV9PyDEukzgKaGUBr/MjmJkt2zK2K2bcrZtIImbtmu5ZBwg6aAOerAf0VEHP30XDF9G1WvweoZ0jLfnGvbmXNeOlAKbJ9cxJEgt61MBjBQsT+WSWBBwkmGwf4lXnMkJcPElx9Ldcz//9Ano79GnGh0EYFqexP1CFuIFeAlMz4BCrUDSjXKWcbSYXXj+HtwS2u07pm1XPrJx+LT8IB3V+0AVKbEBHS7NiBexSglb4FJ5zFb5WLaTVXbbUM4eoc5UPbUOnp2zl9mAn1TITujEFRRJ3ApJrpegzDyv/jIp7AnJBKAcI7cYjLa0f6NPQNeE42UIULH+jBgD+Gn4Z0iAugmG5xCe+0e79ou3DNCcLWPTA8pVwVHGZmjhjk+jCiJbbSmJJYmHqimjh5MKLErDCFDz8jAipe1FZGepG9IYBVqjg77dmsvYFzcn7BkCFE+dqdsR2pJUpfOTJVBIkxYKK5KR5sSAEID/Oq/O3s/RP6ALBbUQrQT2IR1cjwL5j3l09p1E4B+7fci+ui9PVd4ymbLoEwDBA2PVjG2ZPMWTJbO35kM7utC2WdwHpSqb1YYN8L06dKRgWfkskahUy7YMqSlPROEXm0AqnIStbIBR6lw/P00G1xjNgs6b/eBowwa4fo5ynRYU1MWOcLq/pvm3NPoDdNWTwreTTbUqoZQcJ9MI3r0C3YmUgnw3aQ+375myfVMB6cmyEvGrwEbmCJsdJxfyhweX7elDVZo/eFbGv9UiylQloTNUqQqYKVU0NvgBLkI1h36YpN1VDv4tarlrOkPtU8F2DJBlhuFTgKcPoatPIjTunJyw+dlFSxZzlkcIt/Dvh2nOiGyQqG0kGliksLSfNTeAh1BU/U4HkldRVJYmNFVSI5p1iqb47jZcfl3UR7+Kx5FwWgXX72u1Afs/B5btiYOzdpY+Xg2qkn20HcNyDJXwLotS7ETg7qCnY8goObQBuzA1vwRks1jAxxcpxyED4Ttvzdqt0yP2C7sD2w8lJNo18hsD2w4L2rYpi+ZDgwk2r1mr8x38C6HeQEBDIqj98P/+2UboUP0YqGeK7qupmEIKUogrVQ9VTmkalJawEQEmfA3sPRVusu+8tmz/69WjhNm2U1VBEBsVMiLc11AuIdrOEHr6FJkEBZr6FKQyAmxlQlcAVhnfykmAjevEGWQJirMCWNA8/sXvn07Zs7Pn7Odo/PbY9jEanlXwClNyiSsiRDYs0wey3cInwRxVJMYe8JKNcO1PaOjQp9EXoHtgp4RRwhkssIcuXrvyIk0M8O6RI5iXJQgqHaj49gevnLCXyR1cCgcQh0tUO6BGBgXbkq3brUMl1EYa64yN2+ZMC91dqXBgORZpB5nRQLev0uRmFtflWfjQW3MdO0gmwPkGAAR4KSrvyp0x+3+nSnboYske2jpqN6I9pbuLYDUOsja5l23aT2EhG5vkrVhFEdavE0c/S0APsCJF7rVUREOcFn5rGmqSdqHmlAELXAabn6GFyW+/UiIKj/kPz85jJE0GF21yJG+fuGHE7pkcQgVsUioOcMDQDiE16fMu6C2KQSjLcTCA8bQVoXkXHOHB0QydhmjSgJby6tkFO7e4ZBc7m8HqwN4oZ2zmUMsepZ3gPcUiKRmQCm6JHN00dqDOHiJIXULXD8goiMIqMql/gYwrNNnpbauVcuyxgATtYr+4xbdfu3WzjZC1G6WosgObHqfX4/946aIdrWbAajx6eCT3kpT/C7el7ZfvHrVHJlq2O41aR0QnCWWkAHJEGyvp66KUBr9RT1t1P0rAblKooso+UFuSLcmK7SvU7KbxlI1AGiV49kWxH7rJVdjAs1WYPvS9nVJ3tbIV+ysmKcrFar7YQOgTulOFYKePQO8Le4n5Y4aiqUX71q2jNpGgTAYNw4d//uGRAvx7xs6FBSdQ8la2+9iYX71tgsq2BvwaYdamyIqAhljQDL87utCxYxdJfaOFk4LITQISipEWsVRHAd40AN46EJAziaHkjKeuTUEBI5MpzhnZ/yYz4LmLsCRU0sVu3p6gyruM+f/zdFaVDTFuJbuf/lwLNH14nRyYOtivafRr9Ax0lWernbUydTtyRhNrdIFiXKXC9ATaybfu3Wrk5yNUUfnAzCdP1u2/vraAl1HFWYFN4E/50u60/crdE7YnuYweD8Ogk1IV7v7acs7+4miT1oQLttws2VJ7GDZBbgsMJjZe5KNxyoYVsXryhAB3jyTt86iKt+YahOFwcLEJN2Gt/sOb87bpdMu+d6xlC90BBGjanj0f0ozNswfHCSeyhs1A+cuTDTt3YtlmojzxWqJMqI8wIPi7HGQYdYQUuwkyj1n3RkbP7EVLV+62eGycKBRbcbKJVEjyS9ta9o09ASQv9a5jb2Lo/Ifn5gEg7l7V+bPIr9/o2z+5Z5BqZ5xQyADfa1BRMWy/+3rJfuul8/bCTJ2EIXhsrUDqm1xj8nQ7T417xozCLcsW400kNd1O0tTt4Gl4czNnm6dGbbiIuplL2iga0C1FNCF24SDcRf14E96SnccZdhsNnLcN8h5dfSwrH05gr9dIq4MCVpunSaq6dXL9CO3Lg9o2MnoGuhrLo2Rj9SmgKy+equhALbBxMh/Yf3mUttok9iQKeae+/benz9qzc3gR8XfIdP/GHrN/+fA0jSVxQqVoTozW8nR92H7z8UP2+MkkGVcjLBAcZIH1BJoFAvlyo40YlnIaooIuEsA+uIwmc+qcpegOuhlsVaPKDNm5W4C7WgMdKgmDkzA2+qsv1GzbKMVeHBfQwGYyk4DK6rAhqArVVIiloraQOUunFLLpeSNjA0DHKsT4URfmAB6LoofwUVl6ZP/ojogaUr4DNxewIr/zVsv+7E3YEEZSi716YLRiv/7QBI4u/N1g6DJ1kN8/VLZ//d0SDckUdKCxAnq0clzUBlZ5GJ4U88uNJLYk2JtUoAR1tUtBwDy2wU/OkvgPgKapJwqI0aaZ37ZButuVqtSHqnggZHNV2U0NKQ2hfRAmjRAtYNm+XMKDyWoSMr6wsCPNA0SLwR1T9eWmc6XPe94y51phWvGui/xYGEGJ7ZmqfYPm8Tm0iiSJ9ufrKXv8nbLNYlZ3Wdw4HsZ//NAu200D46yan8E2nrmQtH/3XN1mOzk0FGXxKrcF4HG8Cg2SGEBrDR8XLYyB35G5RaAigW9FKt8cj98+UrUfnEd7IRzYgZoGKQT72l4oAC1H+Y9VWM4rCy0aSwBIjCYB9+Zi0nbgFBOjFGuJt1tYrrcbA7jW0TPQ1Vzmvbxtl5aPMUJy5haVlRALpWHk8nLTnju8ZIfn1TATf0aibr+4N203APBmpWStWoW22x37zWdLdopeKl1UTPlglK0VyM+ywsN9ZQmsMbIYSAJQK0llNtQXoK4m8bHLPTnPJv72kdD+5jRBjwq9aRpLNgTAH92cdVQZkIo3yx4fuNjCakaIk1ja6LRtf4Fy9W4NShbguT5uDekLTG3DY+3VrHF611hG/I6hm3aI/w1ScvK5mwgOkERUT+fQj7P2zNsXiNSQyob0v2Gwa9+6PeMSR0UZh+s5+50DS3aajkEu0Nwu8KkCxFixyAc1upTjrInTbK1Rw4kmvT2SdgNPVw2UNkz5LiGNMhfhYX924qIdJ11bbCvNpnxurG035EnzYw11QoSv0cVDGcYBzfiTBFJu4a4DBbyVYpEuyA37UorGVUD03jEd3QmgwKBJzIkwoRE5dtNA2W7bQVACX/bocA7sTdsrpRwkTF0PvPaX92cpBUcvHsKgGS7ak3MZe45GDhSa46rF2EHIgVL8W8EFNkpahFS2tQYhDY7RcTFQVB8Ut78CLXEZKG3ueD1tP1wYtsLQhO3C27iZtrFfwPLNKoAB91JHjbMUL+RHMrYVY2nbSMLuVFSLdap3b6AGnU5pWBsB1prn6ndrr2b1qA99loNVExC9Ca8i27d1DOMEzZ3gY6XasBfeOYtfnO+B3aZ0ZJ/au8VlynbIUT+Lf/wvXzpEsQAAEpAFYCcjYg6qs4oa9Bxfw7340D/xMfpKv119xIeqnMWpmfCFN04s2JE5sRhYHf70XWN0YaLvoubehoUdPLdkZVpU4Q12+TFTRQqCdXLkhOYS/43Pu5G/vQOdQIJrVgYpK1NWnab3jBZcwmfkgd2UkrxwogruCoPNbpvI2hQBhZDvfNTAF0616NErNoDgVBBV6NaPIdNSPIFNvYD29Dw+nxLWaBJNZJD8xn1D2nCAzpyOl2mjAn9XfrvSPAbJ/MoiuwQknULr+Fh5umYgLMIpAqYoUEDUhtZDEY6jpeWGnbpYt2NV3TWAOh6E2y3jFF/VFl1H5jl4+F++fhGv4yDLYIFiDY5q+gB11EQNsagy/P7Hs127qPRoMhKynSrl6WQXgzCqfZL6OFvRLXVw34PueeKpCoo7LF8xkJxQdWfs/U/vmA7RxmxBi8KkBouL+L09fNyK7pxeatNwjLQ5MGww0bYbx8ljVGdogLAIpr05r13DAaa5C9M3MJO1lh9vqLg+Fi28/RyGAoauu59HAifXJJZoQWnXAJowB3cnoBxTcgCgp3BJFAh6KFsgljQgmea6wdH7UtEClPgvf4tILg/Q8/BHNyeMmjO01GuKvaJyDaGbI1dZqCiDshRQ6YLzYavGUwtZ1YU3uJoP+bmiS2rFHQt9WrdiS8ygzahAV9g9QDbAINqRa1AMaFX86+O1lIWcB0lyYLqbozg6FHk1gN6zw8vdsgCga0GqUMtxE6RCgQBBBlcs2kMZs1sbIIOlyIYMD+YslcfYIaFtkeBGBcEljUA+DS1mI4VeHwLrSz6S7KENONlfxK4AXcuWlK+Nm7lLWoe8wvLJe+TMqOyoxmfqX8OBZPSS9csBDre1Focg4kXCpt5Hz5iuWnqlq0WkGqtYt4jAyZAmQbjIpVnMYmZ7CKsIno8rhgVAEWBPkmMvcvMOFe4qP12hMbcojI++DChNiaEShDKyIvJflilCiDCAPNiLR4AkxdxV/69mOkvMV6lfdeAa4bPJgRhNMJ7SDTaO78jF2ejoGehahSM3kR3/FDIOSeCU1BcbES9X8Nj9Q78N4ZGKECmW2eZGfaCZlAaGzqO/7s1G1/PTv2eesd6vDAKwHp3bDVRbJTtJxrgbHWquGGTyr0vApDC4EsgA5Urys5U58iKe9E9f5yN80jt6AVTtmLQCOaOqQLNEY5osbCUkDumDIbLkVAJO6Y/V+b5VJjbKolVN7fgk1qZ0YI2YxbiXV/WP8xIKalzRJZzC09P4+ltQlsJ9EYBFbGoGToui6YibnZKWVPmtMKFHwpPOIIALQTY6esZ0h50rExA2txSeyw3aEPHHHJ0nJslBdDnlTLSKyzQisp/FhZuhk93UUIYgMxoBv3eLYRWOX250NR/ye81TGK6hZwVUxuB3yayao0GBIAH90QR+hwCDmP4SokkwXJaoHHCyK+JfQxlXsI7dha7wp2egr8aztBAQgk5GPOAauhGfqh2mKXkRRguyJYBewoEV4IJNYOJtJxtrAFWMVTpg6xz9Yi8CZsxe3ExdDekkOZVEPlw9UplwYCVWsxCqhPhkoQobmJtSW8vKKAPQceNMUcTGR+9A12KYu9RFpa8ttVDHEEBye0tIbhtA5cJgkrW5DNDPUcEmjPJIU96cw/+CCeujWgrYl0aeNr6kD5zBeQn1Waz6DdJJb7NqSUEO+VIqBMrLuCLEywGtjbMhyreUPNIt4KqwP32jNboHM97o6BnoDuBaigQNE6kC9MUafguSiHwysCZQHwvcRkCLqbEZh8/MsClgPhldBZxfe3dNI8hYHIvXEG71Y8R3OtA1BHQAPlKk+wVKFteNyN6dR84okCJaExVOkm6XwceeQBNTBZ6aYkrXF6y1Zj1vdPQMdJFcWuoTURUkjVVaGTuxgEEEdhAFtUm67O8mI9fHi9ck7PbCDF5JfB8eQQQPvfjndhPJxwUstVGAl8UoP0zMasR22CA2RSz0SveEc/JlBRICzKWPQC5ZgCftSj1gPjlGCxL4NvfhAiFq9hOSk8oo5BGay5S3TAEYvn9U3Qbv58hKWKTgQOfHIwPbwdqO32wI7r0DfcXvsrr9UhNPYPons0MWkLwzMpi1T+8cx7FEEBo/9lE25Ag6clScssGBgt1JEOETkwgsak2lusmPHg/hY4xObn1uwWzAFca7lPLuC37AaXS3SGx6Z8Tt4f53+zfhC0JdrOPGPd0O7B3yHlXDmoQKb2DeaVqRK320icp1Cm2sJSsapErI5rgaaM60eo6RgjogIs4uFumwE6uvxe0S7iEqlAGDWrhOdYfbZ0m7aJJfWAbbG+263T0E3y8vWZdW2WmswgM0+yqBTQ5Wzoegs8XLW32WMHYQvBzgLyH5+Dcr59DvCPlBbmSKNWgxri6jqIKE/yr00X2clrEvlYgg4S8awYp+YBhXRlCyTr1qi2QKPLlINQep1DpnkrWyR0yDc29Qg+kd05mI8qOkQqmHrrICTpAid3genMWbF5FRtQ236V2bYT9oKh3I/OmjtGyCGtJElVIA/H46hT5G6bpubaxbbmI9sUDxX7cFDtCK/sTaxOUgrqO1jFXq4B0/lx0gvu2wHN37ntGOPUgvwBz3SUpTVllBT39hht/IEmZTtuS7tmucGGqmyI1OMq7g9yzBbd2OzeOEykRevcblZ7K+b3oH+gpcnCrFtWRE1Ij+/ODwPE0XYBHkhA/gh/ninjEr4lTy6WcrDed3DpA4BJtR2vMYUftv7s/DZ9VETX4ZGqxJUQNYEmxiXZcC9LJL0qGrQOeguNOcgA/QlfPCre2/ScLRNpxuGdKu26Toff+8b/MtsJycmQybfisAL5J/g+eIWG7O3l7G26gNgfp0budHdwLmsrNY9xc9A10kxvRRq4Tx4nvyoXhgT8NIM4e1xP1X7iJ4cTf54EUSibRP3z2VtD8+yA24tQC0hRuHOvZPH95q94xUEHQqO8QfwpE6No5HiZeKrtcaQJ3/GjGIADi8WKlJe0np+9YdYzTYgVNTJNZEs3ruQsf+goC43L5pFIHtqdD20vo1oDrPgwWebJMvr5sgookp8TFkrm3YlNasOOlGxwaALn8LjQ9gC7FEl5bQsQukWvzpwQbeOY8mmA2bKjTtq7ePkbWLZkKgWtjzWy8t2NuzVW4skqbcME1KdNP+/WOTtmt6E4BisWCoXAjCcgFcyt56hsChh47Wr8eKQ/bP78nZHdzrLqLiop3I2yzGwh8f1qbjVkZ1hVnbvRNFmvCo8U4S51eT2zvj/oVFpiRE3YaLzeC6EKLpow2O3gUpAiXO6BJ+849wm3R2ZVqdKHEnrCJ35sX097kL1iQpz7NYfW9yq5wQnX0Zl/ChCwt2E01vthBA0A2ys9xm4dM7Bi2oVe3snG5ZlneKUQIDKoPV2CVCr2CJ07tRM/Gscc1YtdTGpDDAPIDWli+cFItHJrv2z24fpaN1jU2g4hqhfoo0g9+nw9Kb1SxxUMKIzOPeYsse20qUiE3qQgXHien+3hk8igjOLuqv7AxHPUICrhe3RdwY1HsH+hrXjUiwnC/N24NgeD5Vho92bffUkL19ZsEocnN682KNLvxzVdsxPWrTlDDmYCuT/qLdy90FbtlW4IZVc+SjYLhgyLSpJ4o80jNYuMN98WrxWjQiPdgp0q2JAKFj7x+q2q/dVbRfvJGaIxJUZTVEsLpj3Nfi2282CNdR3OsUGjpJZxr2D/ZlbJDvO3hIlznXn5/17ZjyJwG16EV/r/boC9DzhLlOtXT38Qa5LklKWsAkhNWO6QFUxLI1q/BWr0jzyZQduTBvE8ODtgl2JCyKcEhtpmXAJ7cO2V0EugdR59SlIkdPMBljKZxRAccpF71IgG2cBKZx3SGAJgu/dFPW/u6eQdufJ6iC+7iNz7zKb19Fq/rdN8rcrpn8GHJjMsRsc1ThfXN3wrb5dEkXr2dDn6ed4ROkhbhKD3lA+zT60mRnEGFUSQzY5nTVfuOzg5QUAkx4t4Tki2QA/KfvH7cXS8MYLrTbDkt2I9rFz39il/38Nt5nUClJt/bAPBpKwWYCQmh1OoSmbY7EzwpsRDfVTsJicGTaCAbNjkzJ3QUmBQUkZCAjN8gVsznsg5cuZOyPCYIrsakF+6F4nW7TVXt435g9mEXT6pIn36jaEfIpv33StxPcazQLklRxEfRr9AXoLiMKYCWQOg+MXrR/8Sjli7hzi/BMtdZ5cj5tv/n0jL18ETKGFanBE+qzfWHSs0du30Tpi9k4Qk6JqSLzNtivYLeqpIXl4rPq6dIG+AoyRITYlBWmRjs+/H+Zm4G/SsbWkycu2FMzKfJcUEbB8ATR/Z25sv3CDRn7BMI1CUUu+SP0jDT70yPLdqCWc5EsiuK5qgrA+jP6wl6MWySgGiCYIpvjtmcL5Zrt3z1KYwW1rzHbMUw1844xWyR79txSnW0gZRk2fZAc9h9z+8s3LsBjMaDyeCpxe7uWsVmAG8CCxGQDAg+K9qgxQxLB2SVFusn1ZskyeG4+sG8frNsfHenYCwspwzQA82E3CPr9w1371TtH7F6eM2weXi3up5GxPznWsFepSVKnJaXyKWDt4qT9gTmIcvujK2bO1buCanZaqIPyqQRgnnwdX9jRtn/1Bd02Af1YmgELnKFD6HfenLc/fK1spxo03MEJpSqHBNGmIhs3navbvmG6lW4asq0T3BITeORV7AtWKxpVIsC9yO2Xz1IRcPhihRuhdOwMVe4VMF3dLeTR73LOIYrMPjOdsK9sI3ceF4WvmlGW26jV7H/CUn7A7Ztb+M11E0RFkhKwvJbfv367fQE6iAV2yTKMtQ1lBAQYRzftnLLf+iJZu5Sn+PD3LrpzBwf8yxfM/vMz8/bCyS63niS4INMbAMiMd73lyJuRepeGXSniJBEnZbEJj67hC/dhLzgaUPFkyJD5z2boBuEZtJmbJ0P7e5TCSygnOM6ncq7O5M5Fg/ZvXyOr69wMiqisAwAONTkHMN9fjZToy6Fxn4AOSGRIAHhxZZk3Bl9W4+PdZMP++hd32v3jtAAhAu90b1ymZQTkk7Mp+7MDx+zAbIfgAu0Cca2qYiKUUIOfK1qvc7CnjseL3yuOaboRLD3TdUtiqY4Zkp5uxe/zWbyc901iJDVVaIYmAxY38SiqCea3Dy3asXnOzRzl1o2BvfocI83lgLbRz/sDdFQy0MZhe4zxwhwwVMIOs3uLv2Tf/MS0fYkm9lPcQSvDQQKgtI8luD72iz1zimqIMw07X2rCLrhpFaXsyE0EouxNPeRugxJ4meZaWVL6xnO4FUbSVOsNuhLJYfzjocrjIQ0liKp67rk5ozKkYmebo2xgOTboEMwOy8XnHcb/rAKd6Qvgul0NaAnA5demoATdvUbTy0F0uwc20cf8jnF862nuYaGbZystWbTB5gBgxVbPc6/Tk9QQnV1uUxPaJPrEaRShhzrkashTzbGNOqGxQsJG6Nwz6Ko30GzYd4x8rk/iKO6Ht5aa9tTJJVTIJEVhBeaB3IGdcARbhzaki4Lxq0lPmnu/Rn8w3c04nrUDPAtzPmiwlHssEkBQwzTDCq3YBKzhk1RgfWVv3vbSHWOMgtscIT21YQ3ZqA7soAsEpQl12EBXTeeoiI0E8OqBroqLLuzFpfjBXupcp4aKWMInfniBVuJna/baRe5PzZ0AqtgPAvRAe4nNj+chDiVKczMWsuuInzmgO1HHrBGKWo4WKaDrIb6rW66pGk8pdupAGoCtSr27Y4Ai2j1b7JNqGzJI6TquX5n7XTIJ0gRIQvFsoaQAA6TE3bswZd25Efii7lHBQZ+YGXT0F2bb9vTJZTu4RBy0Du/mu4BWsz6Gk6o1VJSm+a3CVoCP56pnvlr9In57Vf/2B9PVNtqhOFgor6GDEqQM0FWt1hGrcRuj7xzoOAJMpYyGPjk2SgxzgmqOm7l18u24hneTJzlAHxfi3O5OLWIZIVDSbeSrjbZd4A6tx7m1/EHuEnl4rgYrqtPcmNsT00cGRsPlcVxBJV3U2Pg294hn2Av9OLi+xgqEHaTj1z9zQI8X8tH/xrgb/y5udsnWgOkZgiF7ggtWyKseSOaVAAOrwb9So/b/EO1L6nSu023TRBlxl9L4PBIp19oQyl1TYwXnkLmiAPEEkoFI7XiTm2p3uAukiniVfyhXgHO7IpQ7MqqkY/NjNUtWO6preVxjQH8PWHqlDZCPRa8aYspE9kUB+iclU0mqq2luvHOboH2K+fO1C/ZrCujSIFaHVLdVwIPUqJwxdmsD9E9DGC/ZEctWXr97zOpZrs3nawrol4LoPfCLTZN6pPyV93343tFxKWT8flUWvPfttffqGgP6pVB9P7Ck7l1uxN6Yy3177X1+TQH9UvbyQVDFBQgf/DR+jyZ62dFP1e+yF73CF9cU0KUyXm449nKZL69FwF5mqu7jNXBkrZ9d/24jELgO9I1Ar8ffXgd6j4DbyM/+Pxs+KNdd4GkyAAAAAElFTkSuQmCC;" vertex="1" parent="1">
          <mxGeometry x="150" y="528.71" width="40" height="55.05" as="geometry" />
        </mxCell>
        <mxCell id="FS2sx7Fmn0cglkPjXsAo-23" value="" style="shape=image;imageAspect=0;aspect=fixed;verticalLabelPosition=bottom;verticalAlign=top;image=data:image/png,iVBORw0KGgoAAAANSUhEUgAAAFsAAACHCAYAAAB5yiXNAAAKtGlDQ1BJQ0MgUHJvZmlsZQAASImVlwdQk9kWgO///+kktIQqJdRQBOkEkBJ6AAHpICohCSEQYgyEZlcWV3AtqIhgWdEFEQVXpchaEUXFRbFiXZBFRFkXC6Ki8n5gCLv75r0378ycnG9Ozj333Dv3zJwfAIoxRyIRwcoAZIizpBEB3vS4+AQ6fhAgQAVAgAE0OdxMCSs8PASgMm3/Lh/uoZGo3LaayPXv//9XUeHxM7kAQOEoJ/MyuRkon0T1G1cizQIAQRkY5WRJJrgbZZoULRDloQkWTDJmIg8teYppkzFRET4omwFAIHM4UgEAZAfUT8/mCtA85CiUbcQ8oRjlApQ9MjKW8FBuQ9kMjZGgPJGfmfyXPIK/5UyW5+RwBHKeOsukEHyFmRIRJ+//vI7/LRki2fQeDFTJqdLACNRqo3f2e/qSYDmLk0PDplnIm4yf5FRZYPQ0czN9EqY5UxTJnmYexzdYnkcUGjLNKUJ/eYwwix01zfxMv8hpli6JkO+bIvVhTTNHOlODLD1a7k/ls+X581OjYqc5WxgTKq8tPTJ4JsZH7pfKIuRn4YsDvGf29ZffQ0bmX84uZMvXZqVGBcrvgTNTP1/MmsmZGSevjcf39ZuJiZbHS7K85XtJROHyeL4oQO7PzI6Ur81CH+fM2nD5HaZxgsKnGYQAPxAK6KiNAnbAATiivxKQA9AXmMXPzZo4kM8SSZ5UKEjNorPQruPT2WKu9Wy6nY2dIwATPTz1RN51T/YmpE6Y8YkWAOC8Du0hwYwvGc150hMA5T0zPjM82koeAJwz58qk2VO+yV7DAhJQAjSgBfSAETADVmh1TsANeKFVB4EwtOZ4sAhwQSrIAFK06uVgDSgExWAL2AHKwT5wABwCR8Fx0AROgwvgMugAN8Fd8Aj0gH7wCgyDD2AMgiA8RIGokBakD5lAlpAdxIQ8ID8oBIqA4qEkSACJIRm0HFoHFUMlUDm0H6qBfoZOQRegq1AX9ADqhQaht9BnGIHJMA3WhU3hOTATZsHBcBS8EBbAS+F8uADeBJfBlfARuBG+AHfAd+Ee+BU8ggBEAVFHDBArhIn4IGFIApKCSJGVSBFSilQidUgL0o7cRnqQIeQTBoehYugYK4wbJhATjeFilmJWYjZiyjGHMI2YNsxtTC9mGPMNS8HqYC2xrlg2Ng4rwOZgC7Gl2CpsA/YS9i62H/sBh8Op4xg4Z1wgLh6XhluG24jbg6vHncd14fpwI3g8XgtviXfHh+E5+Cx8IX4X/gj+HP4Wvh//kaBA0CfYEfwJCQQxYS2hlHCYcJZwizBAGCMqE02IrsQwIo+YR9xMPEhsId4g9hPHSCokBsmdFEVKI60hlZHqSJdIj0nvFBQUDBVcFOYrCBVWK5QpHFO4otCr8ImsSrYg+5ATyTLyJnI1+Tz5AfkdhUIxpXhREihZlE2UGspFylPKR0WqorUiW5GnuEqxQrFR8ZbiayWikokSS2mRUr5SqdIJpRtKQ8pEZVNlH2WO8krlCuVTyveVR1SoKrYqYSoZKhtVDqtcVXmhilc1VfVT5akWqB5QvajaR0WoRlQfKpe6jnqQeonaT8PRGDQ2LY1WTDtK66QNq6mqOajFqOWqVaidUetRR9RN1dnqIvXN6sfV76l/1tDVYGnwNTZo1Gnc0hjVnKXppcnXLNKs17yr+VmLruWnla61VatJ64k2RttCe752jvZe7UvaQ7Nos9xmcWcVzTo+66EOrGOhE6GzTOeAznWdEV093QBdie4u3Yu6Q3rqel56aXrb9c7qDepT9T30hfrb9c/pv6Sr0Vl0Eb2M3kYfNtAxCDSQGew36DQYM2QYRhuuNaw3fGJEMmIapRhtN2o1GjbWN55nvNy41vihCdGEaZJqstOk3WTUlGEaa7retMn0BUOTwWbkM2oZj80oZp5mS80qze6Y48yZ5unme8xvWsAWjhapFhUWNyxhSydLoeUey67Z2Nkus8WzK2fftyJbsayyrWqteq3VrUOs11o3Wb+eYzwnYc7WOe1zvtk42ohsDto8slW1DbJda9ti+9bOwo5rV2F3x55i72+/yr7Z/o2DpQPfYa9DtyPVcZ7jesdWx69Ozk5SpzqnQWdj5yTn3c73mTRmOHMj84oL1sXbZZXLaZdPrk6uWa7HXf90s3JLdzvs9mIuYy5/7sG5fe6G7hz3/e49HnSPJI8fPXo8DTw5npWez7yMvHheVV4DLHNWGusI67W3jbfUu8F71MfVZ4XPeV/EN8C3yLfTT9Uv2q/c76m/ob/Av9Z/OMAxYFnA+UBsYHDg1sD7bF02l13DHg5yDloR1BZMDo4MLg9+FmIRIg1pmQfPC5q3bd7jUJNQcWhTGAhjh20LexLOCF8a/st83Pzw+RXzn0fYRiyPaI+kRi6OPBz5Ico7anPUo2izaFl0a4xSTGJMTcxorG9sSWxP3Jy4FXEd8drxwvjmBHxCTEJVwsgCvwU7FvQnOiYWJt5byFiYu/DqIu1FokVnFist5iw+kYRNik06nPSFE8ap5Iwks5N3Jw9zfbg7ua94XrztvEG+O7+EP5DinlKS8kLgLtgmGEz1TC1NHRL6CMuFb9IC0/aljaaHpVenj4tiRfUZhIykjFNiVXG6uG2J3pLcJV0SS0mhpGep69IdS4elwdKqTChzYWZzFg0dlq7LzGTfyXqzPbIrsj/mxOScyFXJFedez7PI25A3kO+f/9MyzDLustblBsvXLO9dwVqxfyW0Mnll6yqjVQWr+lcHrD60hrQmfc2va23Wlqx9vy52XUuBbsHqgr7vAr6rLVQslBbeX++2ft/3mO+F33dusN+wa8O3Il7RtWKb4tLiLxu5G6/9YPtD2Q/jm1I2dW522rx3C26LeMu9rZ5bD5WolOSX9G2bt61xO3170fb3OxbvuFrqULpvJ2mnbGdPWUhZ8y7jXVt2fSlPLb9b4V1Rv1tn94bdo3t4e27t9dpbt093X/G+zz8Kf+zeH7C/sdK0svQA7kD2gecHYw62/8T8qaZKu6q46mu1uLrnUMShthrnmprDOoc318K1strBI4lHbh71PdpcZ1W3v169vvgYOCY79vLnpJ/vHQ8+3nqCeaLupMnJ3Q3UhqJGqDGvcbgptamnOb6561TQqdYWt5aGX6x/qT5tcLrijNqZzWdJZwvOjp/LPzdyXnJ+6ILgQl/r4tZHF+Mu3mmb39Z5KfjSlcv+ly+2s9rPXXG/cvqq69VT15jXmjqcOhqvO15v+NXx14ZOp87GG843mm+63Gzpmtt19pbnrQu3fW9fvsO+03E39G7Xveh73fcT7/d087pfPBA9ePMw++HYo9WPsY+Lnig/KX2q87TyN/Pf6nuces70+vZefxb57FEft+/V75m/f+kveE55XjqgP1Dzwu7F6UH/wZsvF7zsfyV5NTZU+IfKH7tfm70++afXn9eH44b730jfjL/d+E7rXfV7h/etI+EjTz9kfBgbLfqo9fHQJ+an9s+xnwfGcr7gv5R9Nf/a8i342+PxjPFxCUfKmRwFEFThlBQA3lYDQIkHgHoTANKCqRl7UqCp74JJAv+Jp+bwSXEC4MB5AKJQDV8NwF6vqRFXFbXhqEZ5AdjeXq7T8/Dk7D4hNnXo54RvTEQEs2NAH/xTpub6v9T9TwvkWf9m/wVWVAkatJpGAgAAADhlWElmTU0AKgAAAAgAAYdpAAQAAAABAAAAGgAAAAAAAqACAAQAAAABAAAAW6ADAAQAAAABAAAAhwAAAACcd9kmAAA/3ElEQVR4Ae2daXeVV5bf9x01zzMIAWIQiHk2gw0u21Ueqrtqpbtr9Uo6nVfJWvkUyQdIVvIi79KrV1Z3uqtSqbGr7Sobg7HBDGYWMwgQSAIkgeb5Slf5/fdzrxAY20i6YPdKHXh0732Gc/bZZ5999nT2Ewpt+P6U/bG8FAyEX0orf2zEMfBHZL9EQvgjsl8isqNlpXlWXVxoWRa2pIVsMhyyqamIGZw8NBWw82RoyiYdqCkLTyUD8HQ9pK/czz//mvqbvuGbFoOQV0CdyUkbHhy19t5+G5kUFGHaUZtqRHAEh76rzik1xp9Qcsri0UlbXF5uhfkFloiFHeYIzyZDj+koFE59nwaI+1Rv0IEA3PRfzqXP6/bw9G+eAa4QWDJwAJocFu6mzSTgTFnbwy5r7+gym9TFcIBLtZPCY/Qnb79pKxdWWw4PTVLxBLWEJifM6Ig6oyqT/BOyqdIiKVzrfKoOPtO9SH9ylXPTp70jj6+lOxMSQvg/xedA76h9cPQLO32rxSYBdoq2wxERQNAgMKvJANH+wwzc2oblS+3H+/ZYRXmFjUcjjowsOq9bwiA5LKz4r9Rf2gqHuE/9pL+CMxKJWDQS5ZzgEfr0CKjld8Tr0OBEuKRnzSIgNhLxu4L7GfjJcNQu3rlr/+Nv/5e13L4/A+rH/Y7+YOMWy42KMukWDSS9joQjO0yH1ekpgBeVOf1OhtVnYdMBfYxo4BOw6fIkpi2ZnB4lkCikqD90DOip0hJVYYtn59r9Bz+z1oEhhyUiYFJVippF4V741HxaUFpk77662zava7RYNMYlkMH5cChpUR4IkE0FaieFPEdYmPZnnEtfc/j9vB7RQOlQPRFHrvAreAX8JLMxBDEI6aJ40G+LF9XZQP+w/af/8t8soQEVRMCaBjtamhWHgscswdmITgPkeCjGRzA1eIYHqA7kidCT/FZJIzmgYA1DAERwlftAbvoevz99gU/h3TuopyanLGtqkg5Fbe2iBba9YYW1nTrFLAR5XHv62TTCo+Bw7bIltmHpEoglYAtxTT9uSAgh9EbwQicCFiTxqa+OKCg/jWzuFzLD9D8U5jwI1jWQQg0a0oC49C2idoArFI16xVPAnaSBKKQYo1PhUNSW19YFLExjDDyCRG2qRLv6+604P24TmnoAmUwkbGh8IoUs3UwzAhjINZrJcMC9/emn/wS48bMC4jGyqSXVoC56Z1KfMTqaG6MDsK44z7y+Y6sdutxk3cOwMtaONHL1nNhYVFQJLBWF+ba5cYWV5cMAJxI2CYUNjU3SDw54XXjGgwErUQ1BmUY0iBWM6RngM27G7IyKLTFKzkpE6aA/Eo8zi+JUlLSi3LjlxBko+DPT1QaHx+wXv/6NSJbiaBb2/Jf+RM/fabG9WzdYfpTTNPxwtM9+sf+odff1QxzwTO5Namg0pUHGZAgWkyqPq+EEP8Ro0kULS9BgcGbmNd2WRnhlabG9vXOzVRfkqzlbvLjGdqxbawdOnGP9SD2rqijq+BQUFGO6NSxZautWrbRYttgHbGgqZr86tN9utbbBzKG1NClz7Ym2+eWEyx8nJP8tYnjyUJ0zz4lFiW/DO6Bksyxg+vf/5i+sYfECi4kMINQj58/b4TNnqJE7NHudPLwm/bHo4TPnrHFZvS0uK7UkFBKL5kAZWfb52SYbpWNaNJOMnPiS859Ux/1pqn2yzLz45DV1LF2c4lOdKynKZXErtHc2bwVJUBnU9PbevXbh6m2kkwEemfEc8IQY+IL8PNu5ZatVVZTRnYSFWVCvNt+2f9x/wPpGxv0eaDvd3Jc+Q1C9//NBVwuivxS8qQ8h2s/pNyBocjsotB+DAt/YscXKWJTjWlyh6vusM789dAhiHWN0Q6wZqjxYB4MHGa4mgDx/47aNjSRsamLCIrFJ27lmiS1YUE4DgMGDITGf8AS/nAHSqiBIQSUgpkv6/JevSaZJH8GzYjNJ6x0YsJOXb1jbo24bA5k2PmbLEOV2b9kIbxQ9ASowBL0NWxRENS5daJtWL6Ua2Bod7wP23318xHqGRRxhm3g8PtOQPf4CCoUIBzG11qQvzgBbiHYCSdelTw4EOqvIy7L/+JM/t7LiPE5MIj0l7ejp83bq7AWD0/IkHEFEqpmYrpvP8KOBYTt08rT1Do2oVxaFupYvqLCNa9daNJ7DzZo6AZVMabRFFXM6AAJg/aC64LvWgSlrvtNul+/edQBzWSjz4Zs7Nq23hZVljmThRtM3QvvZsLu92zdacQ5wweenYG9N12/ZmWs3A1hTFPXVMKpt9QNg6JfIJyCh4Fz6mlA9fV5Y1rDTlmTmN3bttK1rGx1fE9TzoKfPDhw+ag+7eiBYnuJ257o85T/8kxo0guevX7fL8O5QPNuywllWXFRs21ettkUVsBZGTiIg+HUhPfVcxj5EPQMDo3b+WrMNDI4xLbOAI2x1C6ts19o1rDvqKI0zC0LJhDUsrbWN61ejzMDWkmHrZ1E6ePy4dY8NeW/UOUlPGS/gQDCUsjD/+AdvWTwvBquYRO9I2tmrV+3Uxas2wveki4ZCuA7EQ8GeKlpqbQT28dtPDlr30KiNDI3DUsZseU01olUdnRK3Vj/4qy8ZLiHqTSJPnr7abNdutdo4lJFgLubS7itrGqxG1C0qBOnZ8ZD96N03rCALRDN1kwgs53nuYssdODedUgdByIz+ZQxazSpJON/f/QosboPFc6KWm51lI2MJO3z2vN1CcxyHdyPaBHCk5oVTaQoKMRfne00tLXb+1i3Lzi2kklyrLMqz15BSFpQVg+PgHphdxoBPV6SZNQlFDLCwHDl3znpGx1kkY5YN0MsWVNvODY2WIyqGZexY32hbGhssi0UpjMbXT0dPNF2yDhQJQKSImoLFPF1/xj4hgAWlJfbuvr2sGxM2ykwaGh51it5/9ISNi/IDIGYMNkDNmGWO7BB8eRjq/uUfPrTugRGkjymbQNFZvqgGdXgZHRNVI3NOZB7ZjgwhiqrPwM7O3Lzp1M0IWAFy7NaGZbaovNTK8vLsLbTFfCjchT14+yUI5MLNFksILoEmVsMXLU6ZLtFYxPZt32obVi5nLQsx4FEIJGEffH7SWu4/TDUnIBhwii/qsjHNYAfhKNei8D4tQE23b7KqnrbhUdhJYtTi8JxX1q+3wsJC70tcXD/DRQMfkvbGv97xcfv90c+tt2/AJsYTNjY6YkurSq2xfoltgX/XL1hgSWAbh/rvP3xkx5rOY/zpcdjVx6gjW3jPPJyVlUhIWzdbQTxm/aNDNjo4bOcvXbP3PzsGYTKbwLMWTxnqJCK7JAOiZ8LCWiLrGpDywEQibJ+ev4AoNWLxGJoSlp519bW2Y/Vy2CY8UpKJd0SdCToUSBV0cM79k+zMQqM1AcXkaku7NbXcRXxjOeFcXi7sbNs6+9GerVaUE+McM2wyYjfb7tkZRNYJsTbYkJqXyBV0ThQ2+6JZIbOE6pBxTIfOZYG9batW2Nrl9UxwzACsMX1jSfvdgYP24FGaqtPtpfCS/jnjMyzzqVOX/4nZlTtt8MELNpZAZk1MWC74fWsnHc3LdoNR0BlVmD5m1DaHr9O10H44GbWR8aT908FPrBvKkVgnilmJVtlQW4FexoBPMX2Hx+1k02W797DPW5SSopJWZISguRRVE6BKTwffQuLVZSWIm1usurzENcVQKG5Xbt+xjz8/iowtwTpgHXrGB2q6ccHxGBbIiZ8aTVEIx/DIqB2/cMVau3uhoKDBxQtr7LX165ju49SHMpI6VJEA1LTRMZci4MRjNdY6pKTcgLJPXbyM0SuGah4OFkREqgisbpzft7oe2RcXLiJmI45Q0qr/XNr/6mfUN0wDrBFrG5bbK1s2ITgg7mEKSLJ+/eyX/2RdPZg0xJOB6XmK3zVtA0ACkJJx6e59lIRbKGhRm5iQnJ2wt3dvt7KiLOrUKAaY9cnAL+dRc0W2EJw6vAqQOg7yPz15yjoHBl1xAQjgmrRx+LgkkP1fnLb7fYPTROKE8jy9/YZ7fMDT9wCMRL2yvFx7Y89ujE7ZlhgbtVFgOXH+on105HNYnawkQuHzdf5LQyJK60XWPn/lht3r7kGkgZ1gMykrzLGdiF6qPpg2wdTxZuCtvvrq2pxK8Lz4pchblHO74xGy9w1ZPtzSKqukOOi9Bx127EIThqeAojNL1cEM03QFChc3169eabu3bbIc1q8o1skR9IBfvP976wcAVhp6K1YHtTxH+RKy/RlI7XZLq11qlbLA9GVRyMmK2Z61662mtDQwsuhGgFI7osznbO8rQRK3c1ak0WMRHBybgFVctg4kkynYCT1loMN2/cYNxFMMVLCUTBdvmv6KUAVPbjxq733/TTfnxjGQhWNZdvHGTfuC9UJUrfsjIoJpnv31ED0T2RFq6UPfP37xgnX09DhrkZ24rrTMNjWucUtX4FdzqBzRang+Rbxf7aK++MixPlvz3TY7ffkKiE9AUQmkpYQtXbzEikuKNc4vrIhOhewtGzfYpvVrLTE6jFY9ag8edttv3/+D20LSgx2BvgMLyzeD8yVkS/CZwB6SgG9eutVm19s6XUrIYWrnFMZsZ2O9VVdrVaZyJIPUFxD1NU6Fr4FDSNMhEXQCT4ksg+qsSs/QsJ1rvmX9mA+ys7MtiorcWL/Y9m5cj5VBIiNAAKdYiUyacvRqDOY6yyQby66Co87KCrLsr3/0nhVh2ZNnRhLIGayTp89fRkpLN+LM5rmVqC8h2zuqjrPC9mDkOXrmAkoOplfRHHxrxYJK2yCjvXx+6pXz6xTGhKE5FWl9wRFgPkD4BIv11ZY2rIKtLIawMzpdlJuF1e0VW4AYRuOclzgoxKcRxen0aM0aluBBSevf27HNtq9b405leWd6Uc0PHvsCcfORWvW21ZDs/fr1POWZyJazVABrlb+A+nz9XpuF4FfxcNyKCgpsy8pV2AmKuQc1RzyLlhIywGS4iHL7sHucvHTZenrg3cjg45BVVUmBbVu9yv2G3rgTh1CfwvPz9v5peOmzrHbl9PG9Xa+yRoBWtNURZtjxS02sIRAe7EyEEQxouqFgkJ6u7unfz8RQSBY1PU/DQxjzf3vwoD1EyZigsxM0trwKi2D9EjTMQD1V25rOL6IkAOTMtRt29eYdRD8ZgGApcK9X1jbYgkqomwEXwjOxSLu+ARvbvXmzrVta72JnCOmjh0X60KnT1oIk5O427+vsEC3cPBPZwVmQ5zwxglTSaqeuXEOrnIKyJlwM2oygX1OQx60Y8NV4IAlmHN8ypnXjcjpy6qx18TnGYFti3BZhq5BRKK6RlsgI2wvmGF/TeJgtNAxcTXmRa4txRKMEMvX4+KRduHHLjpzGJ6o+phGtNqcZyPMR2peQrSqm3UoiF7RIGcX3HzvqfEvTRwb9xsWLbeMKWQS5BYyE3MI12959/f1aNH3g+TjXfNOutt+3GN6jbOw25SVFuO/W2KIy7N0CWlP++fr8lY1KW9y9YS1r0nKLFdEOJopxKj1ypsnud/WyeLJugRPpA1oa09zam//KWh9f+BKydUkELaTKIuiBMvy4fu+eXcAE6h3CsF+I4XzXhk1WgOdClB2X5TDDxduS1MG/XrS3T059gYKF1IF5U2EGa5cswTi0wrJYOB3h072e/jIriCpxeu/ZtMEqiwtsPIYyR6XXsIEcPH6Sdlmg6WMEoJwGUk0IRp/Zz9HSszHkNaQlBGqhkZGxKfv03EV7KHsArGRyasRWLCz3oBoFuEw6ZkRa6UNAPD6eA5Yv3SLKERWFmTXJqSysfC12/HozMSJxl46K8nPdZlNVVMAMEGULEcLC14ihYMr9k8BJzS7l6Bvmalu3kvAIDszVeNAjRBeE7Z8/PWydGLxCUHQSNpM23Hl3BbGa8zb14+vLM5GtkdORnsaMKaBFrbn9AdR9E7kzbnHsunlZUXtr987AIojtW5NrJrK/vunnuCo4/DaBGbGh0Un7NeEKvYM4OBQthWy/atlSW7NsiQfa6FYtch5D6M8940+qbwGoooaAHZTjmdqzdZNVoDAJd1F0iBuInbLseb+4NS2ectlxrNrTPX5GS1869Uxkz7zLjTy0LjvuICLQySvXcUMNYjfQ5A7ZoupKVzLCERYuRv6xRZCfQAUXENHNuaQf9cHHnHkTf+PpixdhdSjvUGMBcSfvvPaalXqsH7MRCerrbBWCRZqqFwcQxALkhhUrbNfGTYi3WPVQxQdRYf/h578gWAlHBkYwqVvzLd+IbGlnQniSjspXfBWN8jQWQRxDrmTkEn71g13bWcXzgUXLdQCUpplGXQ2oT3MpaTakOjXVQ/Bq+fo+OXbCOvsHWJiTSCejsLNq240nR95sd7hOz/Evt+owpeHRDwasDLn63X2vWVVBIdJuxI1fx7HsHTqmmEN6wD0uYn65ulmd+UZkq7a0ZU3Ts4dwg3O4g9rQpNTxJPy7siSfkLHVOEJF6+qJkJ5CO6vt11Ga3/iVfxzFflXfvGaQcet+p53DIDQFK8tioSzBV/mDV3cRS5JNo8Dkd35VpcKwCrVJIYNq1+CB2apIWJ2jj/2IfHJgDCbEGoUinfeH5vXnuZA9swUtFDdv38XmjZIhMOhcjKn7yqpGqykp8TgKZ3qQswhM0uPXENrMqp/93acFfJV21OlJPrtRnT87dcbau7otiXVwAl9lfV2NvbphPRIUcv/X8C3BIxVb1UYglmIG7N039mHhwzExPmzDKHFH8fKfvHwVrVhSjkQ94Vrtz6/MAdlTNgjP/uLqJevEIjghtxDQLCopsw2rG90iKKT4kQlkUxPVpAiLb1BeAgRcb2tD2WhGKZAqM2XZWRF7b+9rVo38/XV8y5FNr4XsGIvstjXrbDPyusvNEE3f4KAdOnrMFShFg7lszQAHg/0Ska2JPIlFUJ6UC82t+CsfWHKckcebE88P2baGWquUCo3kEvJAbvFaTdU5AuljpmgLGXyEcE6Iwvn/iIXr9OXr1kUgZTKH9YMw4QZ4995tW1jwxLqEUR7i/igULKugqvNR4zSGByvJz7Z/+8P3iADDsodkFYlle9zjJRwnSTRH3RyERYg98tA8y6wpWyxsks70ukWwCflb9lwQjqKzfGGlrV2BRRBjv/i0c4Cgi3MCU91THUKSi6F883N8SvS7jHe96dZtdzRM4ZyOTCVsO0pJNeFzQvIU/FjPOqoETxoKril8YtOaVYSzLfHoXVZbe8gAHj51zjqwWwfrDO3wUNBq+uG5f84K2QJWWmVaQrlws5lAmdtQHVSB4pFP2MGWhpVWXVoAcug8FCV+N6HVPMNFToZHWAKPEwnQ1zfkoqiwWVdTgQi3DrGQhtU72K7ivIV0LyBd6C/JybG397wGf8d2rziZ/iFmyiU7dekim6hSfF+3poZLz8y3zBrZojSnF6bo8Ni47T9x3IagshBKQBRJobG21tYsWYS9G1XIewiQms4ZLhAnMYEhzK9XUanv4pUPeYxgAR7wnUgWtdXltBuIogJDOBYU2rUQRmTcsW69rVuO5RL2kYOtJYFF8yQe/bsdnWJ8esKPaci9L5yaR5kVstVOMJ0FAo+iVTTdbrEzV69ZAqY6Ce/OAcNb167Eb0fssgqde0xWwamM/PVq5ZwesWNnztsAPDaWlWXZhMotr62xrQRlZhMjKBQr2CZAYCAyLyRm73V4e0EOSE6M2Cg260uYcGVwcrMDC2XA74PBCuCdRvucwZ8VsjW4WqhUJAJqERqFL/7+8GE6PQYfpDoWqsali7AIEkWl33RUEaeZLlr/AhEvZF9cuWpnmptBHHMO6aQgL8d2KOS5rHx68jv3AAj0Itu2dpVtJIYwlo0BDcQOM1AfnThtrR099IsVyPsmCVvc+rEIO98+zArZakydVA+0HxK27NDf6ujA63w9QCyx1YVQzK5Nmy0rN1ePWBbAZ7r4DINNyGfYg0XwwMkTrIkRy4K6c3NzbHNDAxZB7N3S6UUlOigliIbbcOLW4GmKZkcQGePWiun2CBrjBJ2TZS8wo9Kd1HPBo/Pvw6yR7cwPhhkYZYAe0+Pw6JQdJorq4UC/AyixqqG2HFFwCTMBlRp5NVjRBXCgHojSnDrn2AfJvQoh0OxKErZ28uotO958nbbgXCgmOVkhe3VNo1Wy/0YeJxyobDoKY5ZlTVm2CLhRhkaS9mhkko1Ph+xRb68PiCx7GkiHTzBOw5caLeqfa5k1sjXaOgRQWPsCfTEh0PHefZSMm75oaW9jNob47+/eYcUY4Kd8pRSSg0MzI3NFlUWIESSgf/9+diIM+x4Xecg3EGCztn4pwErGnrTiglxcXht8+4gMaxJVrmPZO4I2qqXFxXJHtO533GcOTGqaNbJntu4bS1nZtY+wD63yBFsdOtmjk4WVAUnbVi1dbK/ioSagjJ6I76QOKvFB00/1as4lGDX9FSzXbt62UxcuQcRE4AJTXkGOvfv6q1bCToVQaMzqlyxwFjI1we4KXGv9BOD/9Je/RkEaZGEMbNtzBuU5HpwXst1ABTkoklNW4eutHXbhWgtxFa78olmO2+tsiah4KkYwDZeLwnNEdnqaqy4fME6MoNgcOHLcOtnSl0AySuKJX79sqe1CMiFUz/buJBIVR0MOfD1KDN/1tnZiQa46i/FNmMHYpcHL+GckVL3sP8+nViE8sAqGbJRVPQv5elntAsvJFW1PWV52Dg7bfrvVhmrvc1WtBdqc7A7q32O+OAtIUrJ7EFRDS6qIY5TFsrqiwpbVSdYP++7hfNxc3b3d9pd/8kOrANESWR9hwPq7X/8zIl8rDAaq9qkWrCyzgGJWt84b2Y9bo6cgLzEyxB7KCltQU0mmA1Z3eGM2u9Cu3m6zoSElABBSUphJIX1uyFbLsshJBNVMCvjsGBQtHr0aZ3QJ64XIvgDvyzIc1EsqKi3OU2xLteOXr9kvPsTrQxCpprd4fDBFBNuLKRlFtih1YnwEQ9WYLSGmOxvz5SSuqzy22z2kU3cJ9lE0qksHdE9d1N85I5uH5ZDWPyQ2quMTtjRMbEkNG6+WsePN99pj864qKLU48r72sXehmv/8Dx/b2eYWWI2WVyhacqzzoxdgW0iNHSJ+ZkqweqNQQM0jfX3W191PXEkp3pWk5eVnEaC4iqimDpwPQ0wAdQ/sOL8WuulxqgTcAfSl2MTT591Np5N6jD8BVYJk/y18K+4vaV0POu0RgUXlpfkWRTpCuXfTLHYza2m/a2N9XVZMuz2MjravhNliEsbTk1baVHumSyhT2c/UneK8fPtXbAnZsGmlh3AV4AWXoSeGNWqMRVTRTBOEIsi9llafRY2efoJPRzAV6VMSToBQfQTXPNcH7ei3/gvx6WuK+fO6kKWlteZm5/kGUQXb4JunPuhK/kXqHWHhHBxGzT93xf7r3/yjDWIXQfUE2cQ4ZhrDM+rLGGVreq5cvMB2a6tzSbYb5pUKaVTiHiScBwLzsbT5xiDxWKdEFBLJwMzldCIVfgpnHKLZFEJ9IHQuQLrygwTfdYcGJjUYfp3FjtklM3ByapwILm3VUHSA5hKcHRFRmXaiuND2ERlw8Itz9umJs75PXgGajIgqfSElc8gGvNxYiA1P5G3CNaXAdU1QVkicKUxtTxgj5IEYzgWcEdUYahJyNTO0sAXUzZMgJUgQw3khn48IvFeZcISQCJ8eJ8LDHiSjShzZIJ/KiLHBTo2tRINJUMiUQi2CW5zSlahFMeclKDpidRpkj4ZNDTKNZLxkDNlCl5y/Y2zry4pqDwwbWdFl7vRh3AGhcQXKpVZCITQdRSQkusFKXXNk6ExQxCKCxCzBOWct6Yupz5kzQqdUN4TuSQWcSjUAGhwoPQLFlyJnlxZis9E2DXo/RYC91sVgIF4cVQu2jCFb3FN8WHZliNIpuKO7z372/gcsTVoQfV+u8PlEARcB4vkMrs24w88FF3TWqfSJp9PIVZsS/oLf0KhLIVNIR455FkHEf8vPjts7bEZ6E2+OZpSeUb1Ctvj8iy4ZQ7amsKSMkC9EQmyM/CEhu0GcCXYqeLT4pjqmnqWLvtNpv6BzfHnieuo+XfenZz6buvb0qfS9TqpCYFBnmAWwFPV95wZsJyBWi61L5rQn2peOIFgCzKfqzvBH5pANYBE6ECNQLobZUl2IwCtD8GpUHbfQCakuD9NB8V5RlNZP1yR5VjK50v+I7fhiBcIUyCj8O+sRAhlMlzzUHguaTvkOZSEqhVsehmezrZDfac1Q7rwsxL4YD2g28V9P+KwS0mnR2w2ucOEFlIwhW8D74RgMeK0nGBA21BHHhHrAbyz4Uj68t8K2Q8EJPykkgix+xhkspQRS1KrYwSTycoJDn+Mswh7aLMqEHzt1Oltg4eScMqDpnzz7omGNLCYb+HQYNR6fKauoFnEuporT+eOf6dMZ/MwYsr2DLDYKINeuLplfg63G6qjYiHCrntFBZ+qSR5CBQWYc2szDZlGNQb+OXQ3LFi60ClxXRbjWoqxlUvk1WODNdz4MYFnsxAPe2v7I7rS3kzTgoXv7x5gtEvlcghNbo1ENnPbAS74ehXETeeFwCRIF/Kho1ugIRt9PvZA/GUO2gI2x1TgqqlG8NLAHHRBd01l2Wzm6YRVaLvMxexazc2H5QsyemGKXLFlsZSA4h0Usii0c3DiFJvmugXTZmkq9Tv8NUqHwUSx9j1C/b7CN7+zV69ZM8E4HaUb72XQlmVpxH+k9MHI0KLWdvDmibPkbgyxtLwS3X6o0Y8gWjQgpLh+jLToXFAVTAgUlSKZVhn9waVUZcdD1torUnjWkRipAPhcSlfkhNDWKfMzTQhKDNDlBGiMoVrIGHx5PqDqTEW0vSVgu3vGCiiKrKy+2feSV6nj0CBfdbfyS1+0a6To7+vthPaoJ8RPkanOWZpwzHs0CVfaSSsaQDaZBdGpaqhNavDinVT8kSQC/4Gqod1PDCncIV7LjS5nMlMozkFA0jcEmxwQy+RgUOz4xhgZI8L0omcuSlTV7snSgjUryUZNeB2jTGlHFHs1yorLWk2DxkpwJ7AU6x9FDnkItqFJ0JmB1shROSPuhbsHJT2dyLxLvmUN2Ckqn7hRli4LEk5cvXGT7SD+0etlyqywscDNnmE3/Qk4INpFARBkmsUtn7yOPjr1HRoh+gicHUZDGsafICeDIhrSz2OKchyO5iHoq2dpdW15hteyrUaIsrQVKHibkLywlX2DxOltH3PWFxnX2GYkHmtta0WVSWqXjWYhOAw7eXzDC54VsAZcuDiiUGiGLrTqcRIJQ3MabW9bY3h1bbXFlgUsBEyk+KhWejQTWQXq2Jqb9DYLc73V3Wy/blrV9Wmq9KDA9z+EqToHpTJgxNoJmxbPY25MNYottPb7GbWtWWj0RUVlIMZPAouja6sJsq9qwytYuXmifnT9n+XmYpTABa1mOsY44Txd7EsujTaW0flFlXsieCZQIBJqCWqM+1ZXlcklNlS14501sJgRaxpnC2C9jhKrJzNn6sJMNSafcLdXXP+YJFMclRogxizdICUpTHZgOKFCyOO2AmEmC4BPEGw5M9dt9opia2Fz1/pFPbC17Yl7fs8tWLVlqBTyn/TFJIlyr2P/z48rvQfXwbuCRhKIkCGpHcAMdf9MNzuxZ5r7PC9nTyAAeLTjSEsfByjgUKf9iFOTKHmGTY5gx6QrU/OhRrx0mX8hBpnU3exqldXrqYp4NED3puaz1vKhZ1OkLJJZBfSqhSzCjmD2wC1Gm0mHoUDaytrOX7DNyBO5dv8F+tHcfGdRqPF0eazASUNBdEbHEvqTz7ACZQXZJKnmBZV7ITsOlZU2LnJQHSQ3aEOLIZgggYgiVFJ59o+zUvWYHQHRLJ0HsUJaFcFvRc22siLMnJh+WUMqWCyXDLSsqtJLCIjKg5TBTUP9BqsLbRgmC7O3t8WwR9/r7rJ99Pv3kIxyC9cADIPuoDQ9MsfHoJGHNt+xtdiS8QZB8LUnFEvRWcniYKFu4tQ+WEhwI53IauBXxBeJ71sh2qgIgYPNpLh4qcS/GZy4dUdZ0iXEelwHLSECwd7se2Mcn2fvddNEeEaamCcuNDMgkyIxZPQlslxCQuRw/YW11lVXi0orBd2WHVuSVitep+pHh1d4ocSKPQPI9orGu37pjVzha8M50s5NMrIYl1doePLT/+ztSVtxpsx99b681EPAZh9d78nEPGmc/J3ZtpZIeoe4XXWbvgxSWKfrQWuLyKjy2przM3tq63hZX4GzCdiz+PI594vzdVrJhfuoO1kFlAOYJBabnQ/qrFhO8TqLGt0h2tY3opaXVFWQ4Y+FiOEJKR4nJVgmx4D88B9bFSnyokvDisJWw23chOf8aUIpW1NdZJTK7BntweND3uceAQWmXbtxrt9scBWxQqiyt8DqUnVgzMTs7326RyOYRrryAPaU66L3M7J85I1t0IJ6tI48Ehz94fZ+91rjcs6WBYy7ECVZvs5/tP2CXW9s8R4e2zU3hAFgAUt/Zs8PeI45jM/lDyovRHFlYWUad/Uhel9QiFoQ+4unkJiBX8Wf/7ee4TvD7FPmrlGBF8YVLcTKvXLSIbGXlNszi2T00aGM8A4iwnn4czvctF6WqrqqcmSPtkRxQJZVWUlZpV9gy0s8g+brB/S+izIqNpBemuHgjFDqOKW0SMep7mzbae2tXIHXglQFpUhgu32ix//3Rx9bcSd47+Ch9hi8nbfvqenv3lW22sqrKd3pRDSo+2IOPJmA7/VB/K4kRW5EwOvnsQxVPyMDPP/HuXIJrKisrrR4X3KLyAoLacz2GLySZHrZTVJuHFFTh8Xy/PnzMDp65hENDme4noO579o8ffugusbd3bGbTEo0zy17fvAbKfsf+5y9+RUIZNrRqygowRtvzVvETCH0mzGcQZoVsJxGmr/yI+q5UbAoxe+/NfeRLBR0SKEDYNXjkT3+/39pBtNLDaWyyyVvxg82b7N0929h3mAPMRPzTAyUY6Md818W9Zy9d8URgraSSG0WL1OYoBA4fKP4GcrYWOI5sJIvqskJbv7KBHK1rodYKZhVSEGuBpJRFNeX277RfJq/EfvnJIbetRwGkvfWB/f0vfkvmybjtXsO+dyESeX0XSbdutbXZbz75zCUq55F0UoPMeAjQ+eDZn50VG1HDkCCdEQJI7UNWm7/64btocEVQDjmcUMs7Hg7Yzw8ctia2XiuzpNIex1EkfrBtPaLYq1YtNRsWoUw9CcS+NkLF3j92zv7v+x8R+X/NHhB3NwxFEVzFrGH0mCVa8GQ0krSg7Dr6PcJIdSHhXOZVKyfOnbc+WEBFZbnlUb8GWHsy85gJa0jVEYWCm2/f9jqn4HF9BAt18E6Z9csUtF9kE9jICuhLIbPkBvaUTkW0AqOoGzpxRMsurt7Pp8wK2aIun15QTgwxYS/pInaubgCh2DGSBCoSp7H/i7N27IqS12rqKYOY2b6Na+yHr2wlxg7lQVohiBpAKjl586b99KP99sXF6zbAlpEJKNZnjXiOpjIkFewa0G9dE8Kpw8/LiavQBBDPwnldSXAvEyMO5y/I00uOROES68atYVEdWzly7OrddoL3paKHrZtM9HrtQP2yepeKQihJ8v730Ydbd+/6zNJiruLsExD4P68yB2Sr4xNWh7HnT1/bbbVFRWSBw3gEIq613Lc/IEd3oxEKwlBk0raSLv/PXt9r5bx1A984z0bZY0g2enJO/+6zI9aGuq6FUHIvqPQDtPLJWZqSdpfiI487Slvy5kiKDzwxepL8qCyKN+7e85jDSnJIFRfk+7YPpYmrRrQcwc5ym2BKsSeJlK1dnVZF2uh61oAYBBNl42luTr41Yzro6On1toXgtLcnmNmPwZjtt1kiO6iegH17DWrdvGI5UoRCAqbcpvzh52fsOlH84m6SEFbUVdpP3nqdASnwBSYJGd4jhcb7J76wD0+fRRkhzo7FU5SjTqnoM0B66puoPPj61GcwILrkDeqTgRxlq8edzg4bIuawtqLKSvMLiQnhLo4FFeU2wEbZdliIXnY0Cj/q4N6tvD2kDBiz6EtxUQmJyIbtIqFpCihSCZCt5r01PzeXP7NCdjCdklaLhvfmji2elEtr5SRMvIkM7R+fvMjUREJBYcgn5OyveJVWI+IYhA8fjdsDOvHPx47bUZIQjo0jyoFoZacMijoimuZm/9R5zmmFdGyq4zMPIUF3Uje36FDYQ5I1QpT7oPMRVsNh8gDWWXEWrxfg2UJeDJGH96cZUbQTO7cGeog1IhvFas1KCEd1gfAI8vjpi1dcEhIMU6lds/NFtmB9/qK+gpx6EChqncDQPwlz7uvlvQMsbr3k3E4Qbiaj/k6AX1G90F+/orjprtFBO3r2nJ29cI1dAlLrJQ4KfCksj1mIvs9EqsTIrz5kQIKZwM+DCCg9G1DfMMHun9HWB8fO2Ai8XX7HGGJp49JltpsA/QJMA7J7jTIHD2INvNvZyaOoaGBkRU0ZG6AWc4Xdw9wkh7Qcz/Mts0M2reWyiCyF/5VgT5YhXykz2zoekvgF9gE8soyUEw/9CokO/e1EEihAyPXWe3aCLXS9LEB6yZB4tKg2QO6zuiHEPV/x4fG2hWoNTvDsKDsLPjhwkJdXsHWQAZEYlQ+V70AvqEPO10yQKbYT+/mp8xf4rhwmbJ4lJdOrr+zwffi6x9+vBtuZb5kVsnXzQpBcW1UJAMga8DxJAscunIdXBnHOstLJG1ONfSOOSi61e4AA9VNke7zXQ2ZgcgO6xDEN+fw7MV1V6otMCIHnnDeFANc//O53uMcGGGSN7wSaZhXvuYFtyB0HvGPImWcv3fAtKm4YoG8Ny5fZYvyjU5gMXNCeP2E7y3sa1q/8HQWwRfBrZc9Rxt0YiHtE2uVLrXcBKLA/F7M7q3FJHUZ9SBrZW4A2IwGcu0HKDPj2Yx79lc3M/4KwKr0eqk3Cg6/Q/sHjpyyCo1cuNUVG7UbBKi8mmRgqv/bB3+nAd3mzRTKQF1kbt2xYRygF1YjKXhay3ZcIfxXfq0WkygNYTbco291a7j+AH4+C1MCusQirXR1GKaVt0z04ufEDXvf3yci2EdCx/gbfgq5l9q/PHLENb0Nut4gdOn7a7mAbGWHbXgJ3Wy0wLiKxQcDKyPtKZszLWA4HUNcTuOwmuU/vLtPrrIToTEAriL6xaCFTY9pJsBAtTRTu6EI0uo1VT8qLFhG9qGcBanN5PgHoPKNcS509w3bhTjtP+xN8QnF8Vw3i8RqATBdpuP4SUbWpRiQJEZx/CSXKnbw0mEfU1splSz2kQfspR0Hwva4ukn6NOmvRbrNlSDKKXXHYMwDn8yGbhsWjZQsuLdGbPTChAuAYC1A7lC2lQwb4HGwMyo2nVw5Ky5Pn5gYvjOhG2RByA9lB8kOA8ADJmUe2K0HCMTAFEVF6l8KEXQHZyuyut99JMqnHrhNF/pbPVOzuEYrMADsjolCzbOllZAYq53CenVp050MYz0S2RC2ad6Lw+A0WFXnqJC4VZhHQDsBJeOJ9vCT3ea+NGF0SbTFWELMKWIxyXY+wt2YYa53SQkcR9bw+R7nqFoIlNQghupLpQp3OsgNZnX0P/Juwm7xPpr1ryFMTjY32Wy39KSNth8LSRDxdrD9618MIC/oo9pPssUHeb1wEvDL+zr88E9lPVhsgQ41la4GBesVWNNqacvKYBCsIDgHMn6UYduT5jjNNFYqmoBm//8lKX+wvDSItTCMo9UO2m17Fj0jmZqGsIBSiEJanmSAYR+iP3tGj3wrByKUP5Uo/qprU53mWb0Z2ivIETC7xGjm4kRRipmOEsAMPNwAYgZLPFrxCKEXBNAp2HEHs6kNtTkA132qhD2KDCWJTtD3QQ+RgE9nI3MXFZN2hqJtjXFeciky4ukd9Dq5zMYWH+fTjm5H9mD4cAPn/hGBJKHK+BqG98GEAy8Zpq1g6TjL1oHzU5XFYyowq5gPr3J8FeaJMqfHDmAzS0pWChORlCgorEde1ycoDQoFf/VRcoJCuZ+Zbvtl5IJJNDawa1Ysmkxh7tMwpl7a0KxVd060aDHnB5RnRYOj+bx3ZqQ4oEaS8Pg4js02arHvuU/CrH0KwYJ7ijd2icAkFmerANyM7hSlw6UaaHBn/2R2khOYxNuQLyQLGUS4jjlgM/BBzEPwdeVw9+LaxnaZKEQSHKFeMTbMyoGIH0v8E/Ql+67oGR0Xn50vbz4HsgKydB8Oj1bi0KrGK4O3NIFuA0KExrinbQTY7gyQeKhZEL4+PaDakO+ygfzt/JNKJF4/Dm/V+RzmVB8njpyLwxAqFVPF2UpH4d/H4TJVnIlv2W9GrDyWNy7moN/gOIRKNTcpOxkuVATQPys0ivmsQ0S88RnAMb90YxgNTiAgYRgUuIhtxQVG2DfRCHfz2OlOQS+zzwsn019SZeX94NBW1+ivB5crRtjBssDkYmOpIIiCbtXL/jSOSSkLxJF04ROKkMaogTV1RHhG2spvgLxsblckBX6jE4WCazhm+b3xcCBLVCiFjaFkjKDJTUKr8fMVEGcXwgsiFJfuBrvWTqpNfjA+rPfaFcgxXzNUnEJ2Gdiby0+cy8an2oZDHVamXIDefMIYy5OYk/VD2hocoMb34QHWvSEFsT7NRImA/0VaDqO5deiseVWWCIL4R2b4Ka45xjIDIIVgJrj23hmWjwBQjW8NToHxJH2NEKQ0BW+AvjBPeuwpzrKL8ny7SoqVWf/nK03fO/rf4sdebUs5UgxhbjbaOsMlU77jRqwQ6CGMbpD9KD83Eoy8F7HUv9hxT+flFNkloxkOUHA+tmzF2s4coeOIbke23iZVQhGjZrvU2onHEOu0JryS9hCKVtOT0oVHeevAAxWHIO9FPkMxyAhsLANoBfhGYdcie/KOBlHEgYFVqFM8RlN2weBGTkNevIN7p7YBXbt1CW9QCCHkgslZC9dks7kPDAy4CPmAw2juIEuCf6pxveS5kp1doLYDKWx3TO2t411gOCQsb6hbhxaBD1KQ4kPv4+AboTBRq0d6Y6ooSW1lTM93xNK8WChwpGejE00gQS5CZwYNU1SA8t5z9O+tWLAd23M4s2lqDruCRV6SVis4vgp9rB7BEPg1AKxuj+iSX8+ulIVvAqIzDe1tRv7UjQLLqFJ2oX7DQihD8BZEiU+8RbPOAuAv3CwJ0Fq+o2rJypWtrjmgNjMoLQHJQcVC3EK7ELypaT7auXWeLcHqIO8sa2fqgy26w00wsT5Qv/2Q9+Unk/JA4qBjBJjw8IxL9XEnzqub1Ry09d1Em9s6+Xk/HL9uCTK61laQIIi5DrlqJgL1QfitTT2ELMtRnkwF4zbJlWNiWuCj1RGMvGOHeFiOs4J133nqDpACENrBoh5XZ58ZNEt32AzUMB7hlOl6L37QAjVJapWLBm65cVq+g9MwAOitkQwDE3w3aRYJYBGg/PG2SrGfrlyzDCwJ6cQDLhHn2/A082A9Z0UdsZKCbCIMh2768ymrycFahKASp7bkf6smCitLsZDZT1QN2QILEsXRch08vkKPI1xBeogQyYDZU/Oe79lgxU627t8MGkC6ar121T5ouYEiTN56teoR/N9YvsNx8dkUMDdg4ochfEGnVdBvz8RSD47NEy+78yuyQTVuDvAVJe1/imCcl+ikD5Pp1q6wOO7YWEjkR2uDbl9rbPDKpkmw6lXhF9hCPt2nTWovlgGSmZUziK9QzBl+fS9GCq3qw7MKyaFcHo6W9jqpXg5DNQL65ZbO99dpOy+Xtd7m5BcRv5tg5dia0tN0X94CCoXwoedfmLTizAyOb3lZy9uIlZyWqR07h9EDOBdb0M7NCttCicN6r+Bzv3Htgo8MJbMPk8QsnbBfv+oqz8Ej4H0Zt/5jwgFtEJ40PE5pGZCqvW7ZdZP/dsJRQMFYudErcltKp9AydTh1pwL7pU9GlSkKuRVBwSfrwIzV2MhRsX7mCaKw9BLsjPWFfl+Qh+/oRsmsOjzDaHpNC2EVjI668Cl4bO46JNWG3iFM8fa6JSoGTBhSElAmP0qyQrW6Jl7Xzutlrd+7hIEC+hi1obW+srbL66mqPWNWK1I1T4f3Dn1sX4uAk0aOTGKZq4Zk/3Lnd1tQvJEpJcXgoR1CXI0zEM4sSsB4FBIEMFmIpikKMXt2ShT1Bu8fee3Mv4lyOZbGfMhvpqAfiOHTuEq/N6gSPjAoKQw2ep/d49UqxQo8xuYYJsNfutc5uKTsUKRWOpdQoBmfn9HdWEVHp2YSfBiRNWUP9Muy9Rf5yoCKAVYz1tfttaJrkWyKCVdH8MRSbFUuWYAdnRwELqu6vRRScRAHq6el2K5sG0QsUxGgGX/XBkboSXH/qrxAt3u3iBjDp/e15BG9u5R3pP97Hto4Vi/0Ne1nw7VHcMQdONxExe8IGmGkKhFeY80/efsv2bt7oSQmwtMEi++xXBw7ZbQaELlJ/Cib4ydfB8hRoz/w5K2QHrTmjI05vxLdNrKhlnwoTWFuhC9Ame1Bk2tmgNMn2LU09heZGkEqqEbsUh6bJXg6/rwfheUgGD0luOCQXPGU6o47/8FNf2cFgIgSI0FoRYVGs4aXOb/POnB/u22MNi2o8oaMGYjKSbUdhHT/9/cdIU4POpzE3sY6str/+0/ecWEToyif18YmT9uEXZ0hXhyTO4HvoGYjWWuS8LgBrTn9nh2xvQhTk2VUJu+2xFZXVlo9CMIyBSqHDigJthzrk5NWGAlkBb3d3+PaNGm3nACl03+I5MashKqm2aiGLJMaqAVJ6Ym1TUcfTWP4qatLMdg8jC6MMYpsbVtmfvfG67WpssAriDENTOJmxuxP5Butosr97/w/W/qiPhVRPwtIWVthfvfe2LcGhSx4JQp4n7fadVvvNwUN2k41PSg8tDTmJaq9FV4uvUzlPz7XMGtlSAjzQBooZxFYynhi2dWtWe2guYSRWjkVNKedaWlusD4UANzDqPR152EEEUoz9NCQQZxTUCcmv1UX5trGuypYvKsNmoegpguFZdJ1P0sFQUtvoQLk8QHwoGYZMtuIeeQTZbF9Vb3/5vV32Jzs22ZKqUmR/EA07k5aonCMHzpyzv/3tR9hB5OEHQGIRy5FM/sM7b9u+1SuJCEDagOcPMTAfEhe4/xRhaIikWnI16EK0ynwRrTqeaWLVhWcV2lZ/KZrE0sWMsK2rREAttl2IdjEGIMGC0rCizt4Z3G6//fCQ9UIxSXjh+MCo/f7zY3hvRux1sidUMCDafjsqxGNjVgxHA/J6d++g3Wy7R+xgmz0gYH0YG8yYQsC0TlBPIaynkrdkNywmq0NtnZWTkSFOJhiZRJWdJ6yoKyJptff9g+Nn7Z8+PWID2DqyGKxJBk4B7z98dZdt3bIeJ4jsJww60awXm5vtQ17aNo5FMG2eoNGMllklUXRkw8dECb4oQV4x2EQlOU//NbxvfV01NmT5J6E8iOPIifP2/qnz1sk7BSJS7wE9zjNr6up4IfFWq1tQRrLDqPN8noAiqZeb8PfwvLwoU7Anto9AaUq5L/NnNhpIFh4ifxeNpjiPeBJGMRVSJA0h0rXc67CPT522o5ebCadQqxITR60sn5e+7d5lf7pvlxUyo6BzjphduXvf/vv/+RnBRK2M6WP6yzTSZ89GwLhLABpzeLJkWyVYeQj/lhGnAGTESOUcBkklbCbNIVSgm3Rzvci5elFQAipqR/u80HLT+pFGQkguMt5rpiTwaY7zrPbnTE7qU1kkpeExIHK3iXdobnO77h1FpEti/UqMkeG9d8iutXXYRyfP2m8OH7WLiKYJzQg9wyCUlRbZO7s22fe3r3crpLL9DPNs8/0u+7vffeB5WbV7QQj2QwSV4TJrZAdoUQd0CBqFmYXYUjdCnNyAVRWXYmHL9ykqPbiyrMIq2QqihbIHF5TLHXREYQMPCPe609Vh9wYH/KVpIZh+Dimg44iRYXm1ERXlz4xqAPmM8DukT6yNSeRmjIvw4iHU6jY7TKJ0iXZnm+/4dg84LrCRn4TZ0ri42v7i+3vt9R2bsY/k+cyIRXIwmA3Z3//+Qzt69ZrrApKVgj5lGMup6mbFRvRMsGikgXFse7cEZByP9CZMru/tfoWX85T5mibnwySLTzv898jlK2S4abaBfhwQLDyygcuBoDdq5OBFkaFIL35YSPBMJdH/xUz7HKyGYhuSgBSKoJg8pdrv6u2zdkKQOzANPMDj0ocoGmaLn9R2hh9xjyw7SEa71jfa2zs3uCioPeueCg+k3uPtpT//6AAL4mnfbCVES9TzFEfp7mX4cw7IpjO+qAREIGQF9mNBhsdd2ltdrf14zy52HhDHHSYOg/MR8r71owpfYfH7tOmSXdI0RwMlqg7lgUWKWiTKRTAe6dVZMTYTKSxZbFypQD2pFteVH1u73xOwLmWbFBtx5UNUyYzRCy3k4V8FDGIZW5YvDhK/sIZoSQ8ze2539tjPDx60Y8SMjyDj62VGIgrtn3yRZdbI/jpgXDyCYpUTvoYF6CfkGlmzmBQUrJZJpBLtfxQnHKFj57GbfHz6PDsS2l3UEmUpuF4d52ZvRoMoy52kDHfPcVafUn4CdZvFTJOLGGvFgmsD0nK2oLyG8WkHwe5FiIZyzTnFokFG0Govs3j+zUef2PVmXtbma4U39VL+ZBTZonEtmJrIMRa3Uu3qZY/6Fl6YVoIlTemdlURASVyYAx43fQtJ4CRG+juIev2kWR4FmVIwnFy1LgjvjtBgtfDvWsT4mcWnEFyEzXzlwoVsA1xt61es5B1nWUhM2oJNoT5tXh1mCp67dt1+9eEBa4GFpAdN119WySCyRYdCokSwgP8pj0gOpLxh5Qp7deMGV2jy2ZEg8Y9YCPfQ60U8RNc5H25nv/pdfJj3MeHKESufp6QGRcyqSErQgpnLAlrGQre4uNAW8mqrBexlLCNmT/5DsSJVHywYwRaOdrYD7j95yj4ic88olj+9YUk36bb0jOHrCy8ZQ7b4YYBspriEXxX1RuIbNuuq0kJ3j20kJrqORVDv9ZKdWITlyBEb0XMshOPwY6WHG8fkqV0A4umqSkqNorAUIav8f3GUIm2lS4trolH5DzW7tPXvAdbJpuu3eHPpBbvZ0YUkpKGgPQxWTtlBw37uZfzJGLIFrILchRZHmrDjKNKnKFNv+oiQmKvMVkKNSju3EJdaMVIIOl+AcHWeY1ILJogPFsYAgUKikOq1SUHiqwhUXxTcLu+4Yvf6CaVoI8nLVRSUSy137cZ9NqBqIzzQKVmY+I+2WX8bJaPITtsPHAfTvQmoXPsIFf8n/GO3siqCdxYQfbSsdqFvZy6D2mUFjGmHKne6xINI6InNoWhRdSA7B9NfomMEbU/O8WFmwgNEwettrXYdJLeza7enb8CGYVUB51adgbNBn3qH77dRMoZsX2a8D0zi1LT3DoGUoCh2BETBNxxdErMkTIDcbBSZUsyzemFPHVrnIo4ybCdF+cR6I00EVK1aGDBk7REUqC600FZk7C528nY+7EXWJl8U8vwQ1xWtSngtbTGqNOPcCSOXssN7LdhIvo2SMWRnAnixCXm6s7B3K1GikuHmYr0TVTtlwz6keSrGepDwsUEWzyDEl5nwLVHrbPr92Ooym6de0L1atDxdEcgUQh/Rjic35NNnjv+BUplBolFlgvDFEX7+MkW4uXb/O4VsdcJzt8IuhHjZCcVf9T3g17qBpQ6+AEfyERD+xZr+JZTvHLJFwtOIBbOSY9JWRvFeFT/Hfc45fJ3gz78AhH/3kB3gc/qvU3Dq1xP060jmgp984sr0s9+1L995ZEuCeWYRMQeYfubl7+LJ7ziyJSQ+G9ni419x6buIZ4fpO47sF2tfftmjktY4Xna7/1+290dkv8Rh/yOy/4jsl4iBl9jU/wOrvRCVMLdJewAAAABJRU5ErkJggg==;" vertex="1" parent="1">
          <mxGeometry x="560" y="550" width="33.7" height="50" as="geometry" />
        </mxCell>
        <mxCell id="FS2sx7Fmn0cglkPjXsAo-24" value="" style="shape=image;imageAspect=0;aspect=fixed;verticalLabelPosition=bottom;verticalAlign=top;image=data:image/png,iVBORw0KGgoAAAANSUhEUgAAAHMAAACaCAYAAACaCHesAAAKtGlDQ1BJQ0MgUHJvZmlsZQAASImVlwdQk9kWgO///+kktIQqJdRQBOkEkBJ6AAHpICohCSEQYgyEZlcWV3AtqIhgWdEFEQVXpchaEUXFRbFiXZBFRFkXC6Ki8n5gCLv75r0378ycnG9Ozj333Dv3zJwfAIoxRyIRwcoAZIizpBEB3vS4+AQ6fhAgQAVAgAE0OdxMCSs8PASgMm3/Lh/uoZGo3LaayPXv//9XUeHxM7kAQOEoJ/MyuRkon0T1G1cizQIAQRkY5WRJJrgbZZoULRDloQkWTDJmIg8teYppkzFRET4omwFAIHM4UgEAZAfUT8/mCtA85CiUbcQ8oRjlApQ9MjKW8FBuQ9kMjZGgPJGfmfyXPIK/5UyW5+RwBHKeOsukEHyFmRIRJ+//vI7/LRki2fQeDFTJqdLACNRqo3f2e/qSYDmLk0PDplnIm4yf5FRZYPQ0czN9EqY5UxTJnmYexzdYnkcUGjLNKUJ/eYwwix01zfxMv8hpli6JkO+bIvVhTTNHOlODLD1a7k/ls+X581OjYqc5WxgTKq8tPTJ4JsZH7pfKIuRn4YsDvGf29ZffQ0bmX84uZMvXZqVGBcrvgTNTP1/MmsmZGSevjcf39ZuJiZbHS7K85XtJROHyeL4oQO7PzI6Ur81CH+fM2nD5HaZxgsKnGYQAPxAK6KiNAnbAATiivxKQA9AXmMXPzZo4kM8SSZ5UKEjNorPQruPT2WKu9Wy6nY2dIwATPTz1RN51T/YmpE6Y8YkWAOC8Du0hwYwvGc150hMA5T0zPjM82koeAJwz58qk2VO+yV7DAhJQAjSgBfSAETADVmh1TsANeKFVB4EwtOZ4sAhwQSrIAFK06uVgDSgExWAL2AHKwT5wABwCR8Fx0AROgwvgMugAN8Fd8Aj0gH7wCgyDD2AMgiA8RIGokBakD5lAlpAdxIQ8ID8oBIqA4qEkSACJIRm0HFoHFUMlUDm0H6qBfoZOQRegq1AX9ADqhQaht9BnGIHJMA3WhU3hOTATZsHBcBS8EBbAS+F8uADeBJfBlfARuBG+AHfAd+Ee+BU8ggBEAVFHDBArhIn4IGFIApKCSJGVSBFSilQidUgL0o7cRnqQIeQTBoehYugYK4wbJhATjeFilmJWYjZiyjGHMI2YNsxtTC9mGPMNS8HqYC2xrlg2Ng4rwOZgC7Gl2CpsA/YS9i62H/sBh8Op4xg4Z1wgLh6XhluG24jbg6vHncd14fpwI3g8XgtviXfHh+E5+Cx8IX4X/gj+HP4Wvh//kaBA0CfYEfwJCQQxYS2hlHCYcJZwizBAGCMqE02IrsQwIo+YR9xMPEhsId4g9hPHSCokBsmdFEVKI60hlZHqSJdIj0nvFBQUDBVcFOYrCBVWK5QpHFO4otCr8ImsSrYg+5ATyTLyJnI1+Tz5AfkdhUIxpXhREihZlE2UGspFylPKR0WqorUiW5GnuEqxQrFR8ZbiayWikokSS2mRUr5SqdIJpRtKQ8pEZVNlH2WO8krlCuVTyveVR1SoKrYqYSoZKhtVDqtcVXmhilc1VfVT5akWqB5QvajaR0WoRlQfKpe6jnqQeonaT8PRGDQ2LY1WTDtK66QNq6mqOajFqOWqVaidUetRR9RN1dnqIvXN6sfV76l/1tDVYGnwNTZo1Gnc0hjVnKXppcnXLNKs17yr+VmLruWnla61VatJ64k2RttCe752jvZe7UvaQ7Nos9xmcWcVzTo+66EOrGOhE6GzTOeAznWdEV093QBdie4u3Yu6Q3rqel56aXrb9c7qDepT9T30hfrb9c/pv6Sr0Vl0Eb2M3kYfNtAxCDSQGew36DQYM2QYRhuuNaw3fGJEMmIapRhtN2o1GjbWN55nvNy41vihCdGEaZJqstOk3WTUlGEaa7retMn0BUOTwWbkM2oZj80oZp5mS80qze6Y48yZ5unme8xvWsAWjhapFhUWNyxhSydLoeUey67Z2Nkus8WzK2fftyJbsayyrWqteq3VrUOs11o3Wb+eYzwnYc7WOe1zvtk42ohsDto8slW1DbJda9ti+9bOwo5rV2F3x55i72+/yr7Z/o2DpQPfYa9DtyPVcZ7jesdWx69Ozk5SpzqnQWdj5yTn3c73mTRmOHMj84oL1sXbZZXLaZdPrk6uWa7HXf90s3JLdzvs9mIuYy5/7sG5fe6G7hz3/e49HnSPJI8fPXo8DTw5npWez7yMvHheVV4DLHNWGusI67W3jbfUu8F71MfVZ4XPeV/EN8C3yLfTT9Uv2q/c76m/ob/Av9Z/OMAxYFnA+UBsYHDg1sD7bF02l13DHg5yDloR1BZMDo4MLg9+FmIRIg1pmQfPC5q3bd7jUJNQcWhTGAhjh20LexLOCF8a/st83Pzw+RXzn0fYRiyPaI+kRi6OPBz5Ico7anPUo2izaFl0a4xSTGJMTcxorG9sSWxP3Jy4FXEd8drxwvjmBHxCTEJVwsgCvwU7FvQnOiYWJt5byFiYu/DqIu1FokVnFist5iw+kYRNik06nPSFE8ap5Iwks5N3Jw9zfbg7ua94XrztvEG+O7+EP5DinlKS8kLgLtgmGEz1TC1NHRL6CMuFb9IC0/aljaaHpVenj4tiRfUZhIykjFNiVXG6uG2J3pLcJV0SS0mhpGep69IdS4elwdKqTChzYWZzFg0dlq7LzGTfyXqzPbIrsj/mxOScyFXJFedez7PI25A3kO+f/9MyzDLustblBsvXLO9dwVqxfyW0Mnll6yqjVQWr+lcHrD60hrQmfc2va23Wlqx9vy52XUuBbsHqgr7vAr6rLVQslBbeX++2ft/3mO+F33dusN+wa8O3Il7RtWKb4tLiLxu5G6/9YPtD2Q/jm1I2dW522rx3C26LeMu9rZ5bD5WolOSX9G2bt61xO3170fb3OxbvuFrqULpvJ2mnbGdPWUhZ8y7jXVt2fSlPLb9b4V1Rv1tn94bdo3t4e27t9dpbt093X/G+zz8Kf+zeH7C/sdK0svQA7kD2gecHYw62/8T8qaZKu6q46mu1uLrnUMShthrnmprDOoc318K1strBI4lHbh71PdpcZ1W3v169vvgYOCY79vLnpJ/vHQ8+3nqCeaLupMnJ3Q3UhqJGqDGvcbgptamnOb6561TQqdYWt5aGX6x/qT5tcLrijNqZzWdJZwvOjp/LPzdyXnJ+6ILgQl/r4tZHF+Mu3mmb39Z5KfjSlcv+ly+2s9rPXXG/cvqq69VT15jXmjqcOhqvO15v+NXx14ZOp87GG843mm+63Gzpmtt19pbnrQu3fW9fvsO+03E39G7Xveh73fcT7/d087pfPBA9ePMw++HYo9WPsY+Lnig/KX2q87TyN/Pf6nuces70+vZefxb57FEft+/V75m/f+kveE55XjqgP1Dzwu7F6UH/wZsvF7zsfyV5NTZU+IfKH7tfm70++afXn9eH44b730jfjL/d+E7rXfV7h/etI+EjTz9kfBgbLfqo9fHQJ+an9s+xnwfGcr7gv5R9Nf/a8i342+PxjPFxCUfKmRwFEFThlBQA3lYDQIkHgHoTANKCqRl7UqCp74JJAv+Jp+bwSXEC4MB5AKJQDV8NwF6vqRFXFbXhqEZ5AdjeXq7T8/Dk7D4hNnXo54RvTEQEs2NAH/xTpub6v9T9TwvkWf9m/wVWVAkatJpGAgAAADhlWElmTU0AKgAAAAgAAYdpAAQAAAABAAAAGgAAAAAAAqACAAQAAAABAAAAc6ADAAQAAAABAAAAmgAAAADMtPdxAABAAElEQVR4Ae2d15Nc133nf7dzT84BAwwwyABBgACTmKMoUjItU5bktddel9e7Zb+sa5/2YZ/8F2zVVm3VVnkfvKp1kGxZgaRFMWeRBBMyiAzMYDA5T+fu2/v5njtNgiQAjjjTMzSKF+jpdPvec84vx+N5ex4p29fHdbECoetiFl9Pwq3A18C8jhDha2B+DczraAWuo6l8TZlfA/M6WoHraCpfU+bXwLyOVuA6mkpkMXPxfM88P2ZeKGV+pGh+OGLhUoFHyEqefA56eO5SnMm74HXlKbgH55QXPg8++NRfz+O7cjm40uVuDHd9nRp8GCpHrRQqcapnYT7yw0UrWZSxRMwP+Rb2uXs5bIUQ1/N8C3Ger4FUbs17j1+E+JSzuWowFy+cMzcEP865JR4Ffh51Q3aj0u0vu4yGE3JjWhizhuguoBd8Vg6Y3sLP3G/1jY5yOca4Cm4MZY81DDMf7hlijUNln/llmU/MiqEw33EdzrVynHlVJhFc57N/FwXMcqhszXUFe/zebtu4ocFypbDVFvLc3LdCWIMDgACCt8xXr3Wbysw1sWBKH3/Ot2EtKh+7U3lfBgg6T//cF+4b3nFSmQmWyyWuz7MXsXw4b2CRJYohy5SK9sG5jB04nrZZkEuoFOY6BRZJR5gx+SFeazh+gd/H3H3CZZDSC1vcy9jt60u2ZVPCoiCDV4hyagm4FM2KUc5hoQG7m9zCOLWkGmsYgGm+vHGj1f0+fr2AhMHc9QXXWDgcMnlppqkrJ5gK9wJ5wozPY67ZaNqihVobToXttaGyTaYiFmV9ikKWaxyLAmZ9Xdj+7Hub7T880madteByPs6YPcuFCw57fChXC+2LKsB2rRzjdIPVgCvvdY5e6wH+uUWqTDbEQANg8i2nBb9jbThTgCz5nM/DuIe7ONga9aHKUsmO72m1/524ZC8dTFkxz5SgXM+KIFuY67il5zdhi5bzlg9F3WtI2rxo2b6xKWz//q4m62wuW4zFDBUBKPcQ1RoAL/E7v0JlGj/f6Z9gFSpzL02Pw41dQHXD43sBiKu4wy3Gwjj4IFrOWCmSB4hwhlKZcYbgD1qVHEMHuFBkiLHO5eqtqc6zJ4/ELJtzuBVc7yp/FwXMvX119nu311lPU9kyLEIoWrIcmJ+Hz0WKOYuCVSa2BgUIoKC//ruFFH1UKLcEUNwXfBZhAmKBDpj6if4tLJQw1XeLoVGDJGBrRBAWX/WYcBFQ8TofAXUKZdvUXrLv7K21jy7M26VRvmNsYmMR2GRwsLgCEFRtBlVbjIWMWWtNyu7ZHrdNLdMGcxUOaCAMUVTA4oXylsjB+nhTQToHTIegnGsZB1SNPfj/ybPmJ7wNfick5407AB5IUoSzlOB4IQDr5hYCcbhvNuFZEqQqAuimeNbu2eDZ8QGz9zNN/BqI6kZXORYFTAcgMNWLxCwajlmy5PMosMywWvi/z+J4LKDmGIpIDjF5B9Tg3gHA+ExEy7c6T8CSnKgcAWWLun2LI7c8ZESwEFCmAApV6rtyNMfkg0WbFQZz72Qhaw9taLJXe0btubGcZQGUXxRl6D5uNBZhAQuhJPgwz5i5VihuN68N2U1rw1bPHZz8h8p9Bid5F0E2h/htAQopuXHqcx66N+frv2RZ2XEbXsNZxF0qMCvwuTvV/eFjIbv7ESBxGB5nLDo/h0goOQSUJK8tpiwOguqcYihjEnHuNfKCFeQaVz8WBcyj52bt9WN5W7euzupjc1bIwnogxiyDn0xnYAHIDk3EUVqAxRVqZPp8roVwT24++kwTEWVefrjF4sQA0PomAK4POxVAJTtLpWaLFOKw2JQ1NMEWvSwLjqJT69vDtzTbwY8GbCCXAHFQHkA635GbsEgrKIoFgViglroysjJmHcmQW8gMclhUMZ3yrViUMsK5RSEqSCHE1FJWJrGwpmVk9CfrG8yRExcOcSFOXABm5VM9FyKgYCEC50DccAlxiRjjaoohTrykpTRO2G+W5Xn3UsTOztVY2JtiGDX8+tNrdvl1FwXM6Uzennz5lD247zZr6YEFxZAoUEVqJmr/8tJFO3xyFg7ryA7q0aS5BQ+nvPDCzR3AOXhrMJojMvNTE3UTXxiaSNghhn6rRZEQ1Xe8Z3EKUG0M9v77dzXbzVsT5qOQebD6W7bU2L7N7TZwAOBHw7Bifgf7ChUjYD/s0ofFwkH8SNl29ETsxnW1KB155FbR8gzu3HTSnnt72uZKaLGhNL8Tu0NLdvLTzYJhaPyV13r+LBCDOUhLXhg0v3ATDr7gLzOyZDFgt7kI5zGmbfUpe2SrZ401JctGZCmEbWAubkf66yw3n0TEiNNcHZC6+KKAGfYjdvDUjD27f9x2freTH0l+laylhmny3WsHZ2183kewM1ARgKbPgjgTooKZmo9YjYDEGfpb+Uq/WAB5QOHB9PUx68a9dO7CPCLIjRIjQE+B8gq2de0Ga0HgCYmaogX7nbs22MsnDts0poqUHN3PaVRWsISfg2XFrSFZsHs3Ja2jBTbNgMMhNFwA9srRnD17HJMA1l2ICIn0W13DDSUYx6cWVEpc8OXC8Conuut9/LvPfBkpZxlS3PEK6Wu1KJIbb8C8iqHFgig5rR1y+vhIzM6MgHwslJSly9fr4xtd9sIt/WXvr/hS7DANJv34uQM2OIVdBE8vsHihWM7uvaXDNvYg39ASiyyyhHiJlfclQ3n/8UMYLs2QKYCTDts1wMpDyokeJRY1sAJ1DufyWdnDRMCW1CNvSSgM6AGU/eey9tbxKcAUqO0llIod60t2z27YEbJOKOMJoI4WcpwlRS1kW1qjdntfEtbGZ7A3IcbZ0bK9dnzGMugFQsaQD8V7sGvkp8YbPILxa1zBAwoG8HpIb7j8IeQoMz/30OvLHjKVZEMWQjX8Jmrrmzzb1R2zOOxX5kcIRJxIR+298yWbwPYrIBYYOI9rH198Br/XgkszPHs+az95sd+8WNwSLHIs2mxbNzbZo3d2WF0SDRT2BXPTEmLssnCXKTjXHsbivxVy+BjXsULIybcXPpy3qXluBVB8q7FEzbw9cV+3tcbR/GCxHuCXooVrAGrz0Fpn7f4bO6y5Jo8pUkT2omgA8F+/P2dD2VqQAFtP6ATHEUkGCs/ix7eYM4vlOkaTB6AhS6CV7+3yrbcRRQuiKSESwn7WDo/V2PFRmUVhRApauRD4C45FAVNqOuIaakzY3zx52C6Mc+NSxvJ5fC+o1o/f3W3rW8XTYVssgtMfHWtZ1OW/YIif+RrMLTqkYbFhRwcHyrb/1CwLgYoEAvuFnO3qzNv9u5ocgJ3GCHh8PCo+QLuhPW/3YY6E5OFBw40yxLNjZm+dBXRQewTqLobEYaAQ0OOLWNtnRreot/JQlbk+w7K++pLd3lOyxrhMFAYDUs7lwvbimYJNFJMaAajFxAJufs3rL261sfF8Ji7X2eB02f7x6SNoXGiW8H4QzNY1e/b9B7cAWCihnODGjFI2nozqZT5EgYZ5InddFFNiaC5tLx2fs/EMi8/tkqEWTI2iPXpru3XXwByduhiw6wYW5A/v7Lb28CjAgmXjKpvn+2eR+RNFxg1FwFthdRjucOcoGqXDyWWegwQSVrDFcdvd3JW1ze2MEwqNA+BIMmaHphrs4CTzxCOFnABnUYg+truvPphFAVPemE9swrA99dYlOzaAxgjQmDvDMnsCxePGblidNEhhGMtQUQ6ufvsv+Y1MFHypWmo4pXPnvXcKEwlOUcjhYsyVbGMTsnNnA4uEk0GAD83Znl7P9m1IsEYoIFBgDk7z7mCBBwaINF1RtrRLJ2NFDRGQc/nBib7qJOBmnBa3rZdLEPNKjomCbxczSXvqMJ4skEtuSVDLiQuG+4XHooApBcixnRIqMrA6PWH2q1dHLIchVMTOKzHp3oai/cFjG82Ppbhp4IExPCjLfZQhv1AhBqamMTeg/lKtjYLF73yUsfk01BnNmMWj1pqI2N27aqy1XYtVgI3N2aN3tVkS2V4MJSyObMykI/bKabgNVC0ZZlaHOYMuW04ht7AHpXiJHS7zIaqvgeL2dZitxY1Y4BYKZpRQtt49b3Z8Cs3WcQqUPekggqS3TDJTPN4Xq0WRCHHTLEB8HcXj5ADefVEHLMLHW/GdO/psX5+8NxmBk28+iytamMrjS64Q2BqShgkCFZ2pA5WiDL1zMmcnLiFhUE2FfCEUsO3Izr2YIAnMqFs2JO3GNYw2DFXCOTzY68khzw5fxPlRlMYrLVZjE4HqGSeF0yLdR7/1H6mCDGbhaowHQg+zds4w4/LdiXm7Z3O91ekcafE8LuXi9uwJnIR+Leexru5smSSsI/P+ouOzq33F8x12ogmUZYADWLktPhqYt5ffvwhLQ+GJ4NiLhayzLmR/9MAOq0OTdJPRuZ86KoCsPH/qy0W9UVRB9itOv2C6UJKHmj807dsLh0ZsJoWpALuSV6gFC+XezbW2s8vsvhvbrAUPiwxW0MDmQMi3+rM2MsWSId993JIepoqAXHQUqcULgLGogX3uJMlp7schVi3QSEGUySag3rE5Zr3NIgaMMVyVeV69e6Fs52ZlDslGl7hCT2G0Qi4pa190LAqYcqVpQBG0R4ddDHIul7dXDw7bicG0kzV8zTpl7e4b2mzftnYGA0AXJvPJIL4Yuz4597d7pSu/enTMDo3BQfAPh3DnhfEj37wGBLunxfb0RS2ehKq9JvhF2M5OF2w/CImTh7lVYVxu7qIq5C7rJ87mOAnvumtyds8WxudjI6OCSzaO4XR59xw2bwD/327yC2cvDpiK80HqkcC9A2UKY8w+PJuxN47NwObCloiCPcmwbWj17Lv3brBEUtQp7Fp4uBtq0ZZ34dwVWQz5TafStfazt4dsDnefohE+HqKOGJGHjVFrJ0aYKaBYZDI2nS7bq2dLdn4CXyiAlYxf9mMBmLq2zBsInrWQOyRjD+0s2rr6OUQ78dQIeki5ERMLXQR7Wev6ZY9FzkJyKriFMMzDiSCWMZ9P2DPvDNvpgZwV0wVL4eMMoZnd0hezW7Y2wP6EZkgJHN7exwabLqQhL1yQV0s5HMOGdeo5jGL0m+PzdnQYv0rYs1gMWRWLWh1ioIb30biiPgBxPmEvn+I3BKLheE65W8oYrvRb4bCgGGj0zBVi8DDlNtTP293rS4SkZcWyjkRNLiIa3hussRlsYa3Xlz0WCczg8opAENxngAR6FeIB3Q6dnrU3UKVTxRoQr8DChGxtW9wevqnD+W51toenw0UclgmAV5tsiBVMEzH5pxfO2BiRhlyWqH2hZOl8ESUHPpEr2zzK0ivH0jYwgVeLeVQUkqtd88t+Ls+SkFZ6hhwEWqsGEP0BguFrQTIfbqaA+zxrcmCkYGfGsXvRzJdyLBKYAbYImFJ2KsCMot7nsxF76s1LNjKPAxusD0UTVttYZ/fu6rKdvW0OOwMMZZiOOpeHIq80aZkVCEs7eLJgh8+SauE1WBzkL2Oq+Lh6ovg8FYl49fAknEa5Q5zOokupWu5D4S3HgRiTqFOKY29z0m5Za7hCxUnExcwuperswCWQLB/4jZcyjkUB0/F8BgAtMj4ewAMEB+MCdfvDM9P29NvDGN7Yf240RduC8/3B3e3WRLyQeJRTnhzL4WKB31OTXd5Dbi8t0kQ+Zs8cmLCZPO/DBJkBcMhpwDF7/sNJ60+R5yNNEXERZB8s7ziCq4m1wjZhr7IG6nFe3NYbsq4kmjgUKbdBFvgdGYzaseEwYS9hlTIJvvyxKGDq8lomUaTL1OOVNDOlZ0gRzMPCfvrsEeufInqiPBa8KQn4zAO3tNmWLnlUOElCFzZYUYoce/vy477KL3EoyJMC8D4cmLX3zqAtgkjONAAJZaynyUBQNoGiFQFuagkWvQxXue/nP84Lq7U4+o/i09uUsd3YveIUJViuj1tyJBu3Dy7kQTqtWwD4z19p8Z8seRaKMEXAvguDWfvnVy8AZMBeIKWElVtPAPiRW7ssSaisCGY6Tx9jK1XBMxRMGcTBNxwl82Ey5dlLh7I2PoNZgA8X1xQLRnrJzW3WE5c5paisuMySl+CKq03wg3XB18sRx5e8Zy0abHOR2KlwKG41cIrj+GCPjeIwYAwRFxkBwZZwLHkmiqhgLFmOVI7/+6tTdol4ZxwHQjSesEbSML7/zfXW2yKZBLtzYSXNRrddfjYrCpNCiHqGBg11Xizbh/2491DAXB4TLH4ryV/3batB+VlwbDi1cwkreNWfClXEySK2oQ5P1BrcHDjW5fApEySfSofs16dyNqloDuuhUFfFYrjqJb/gi7DXtemvv+Cca38NTKIMpESscI6weRNuvRu3N7qJKD5cm5R9V2fvHJhFTsmnwh8Z0s7LAA9axoMlIfcHQeRkd86mFa8E2bd1haAEFB5YbQRbM5aI2cFz85bK10CtzmvAKJYbuZCN5OzUMuMHe7N210acBOBwDBarzMLfDMbsl2fQQyR9ALo4nGLBLjT2JddkyZQp2edcT2JXaIvP7B/FR6qFQWNDrsq78b27N9iedcgsFtQtGoAsV4EiAmUZeQhLd5kArNCH53N2BP9rEUd1HIUnjjzta4vabVuSaLvzjHJ5EaoCByVkhcHe9bUpEsfwDzN3ZRcWsLlHMOOeOY6ZV6zFI6WRsi4smYIZSzmWDMwgnZ4sOfybijWemizaC28NEbgmOhEmglKuxduRsyce7kS506DlgkdrE79Z5kNZblGUCY8s9Tx5PVaqsbFps/dOF/D6SPMgIM39G3Ae3LKpwVod+5eZsLRFvNI0PKI7UX/WbiIBbm0LzgtkZEzcAU/Z+4Nmp2ZI+ywSCSEMJztBuUhl4qgOqle64CI+WzIwVYMijllGqRFgMzjeX30/ZcfOp4AXicoMFMlgD+3tIXJBJF9Z4xqYfvSpQ+8rj0998Vu8gc26y1YUCVFChCyCop0cwXHAAmfDLCL28A3dGbt5HakvMjQdHSuIoFtxAZlPvA7DEq91OL8rGQsuCxGqElBc2QXPkik9NZN2Hz7YOjgFDB/uELbhbMxeOIlZgstR7r0gxwhE028qcdRr3fQa3117tNf4YeUrZ65oBeV3FKtFIzp5MW2vfThk2Qx1IWh0eXyQ3XVx+/27N1tdDBnlnM+awOVHBZCV58u/W9xrGDmsXLJK9SIoIFB/GeXn0pyc8JM2K7MFZFKCclO8APuLWHejWD5DcogkaLo37l1AsxrPlQ8n9x0QKt879wDXwrsEYt9FiGttPRota1DGSZEDgB9cKNuFWWnWjJCxCnHk1pPYWUxkpHKnKz0vHZgAUU54VWEpjujxfobCiNcPj5HxlrOaOAnL4UZLJIj839Bpe7Y1oL0FHstPD2j5ZdcnSctle5t45/nRAooQJhKZ7ZFwre1dG7Od3Sw9st2HaksoJs4zw3ygzYVxXn1cziMGIKSxipJ9/pTkuhRV1mfsge2tyGlxC/zErMvEPCz2Atxi+SWMW8olA9Ol/wuYKBsuvQS5Kf/s++cyUMOUzc8jpwil52DDvdSqfOcO7E68II4dMtGAvWgsWrSrL5zO+G0PKWAu0x7iGiXz7um3R3EioHS4FJGwtZJbc+fWiLViOjjHAeMWdYu9CqxfPBo5QWRSKKNuYXTMScGGe7YWrDM2w5rITIpjuiXsg4G8nZtHc+Xa1TiWDExGy7iCwbkIGdqiFiaVT6LZDtnZwTzlDDl8j2iYfhqtNmR7N5LfEkLW8FNHPQ6omp6upVX54mXU2V94VC7DsxBs/+mwvdcfBaAoIjg2Sgx4V4+HZ4bipwUDXyAUoqnWM0izvPrCC+SSjeIzbhkw0RTg3thMmeBalB40BnnKFGi7OB+zDy7FbZpIk6t2+MLB//YnLB2YC/f00dQKQk8mFIE6JU+Onk3bW8fIIkfwx7BDjSTf9V31dv/uBmuC7QpoiqhoTZYNgAvj+dwTispsvol457jNkLcqii0RFmuKF+3hnUnrkuZNro3+ObMJeesC8RWE+NwFA7+0kE9z1yFRQ/Wq3bXe8DJpXmLVOUsD0MPjBMQnY+gQxC+/spTpJs86aELIHP648FjERVSi9uSbgzacKbhcF48MgHhNnd23p9229TajrrNwlYhFgNpak6ocAp7Y28GBjH14Ls06w0Go6ZBo2LNGdSeMx2mvAgBIiXLidIBrLPzH2q4UGc5TPei6JupdqC5LYoKEkaFhZOUIGuyBQeK/RJik9V9JY1iOSS+dMhcwVy4pVsERmDK1JTk8DOeDA9P2r++Mkg4hJzhDxpXV1+nZfTvrcPexoMibqNxvWjQA+rHLbzlmd9k1CA3ANIo2jtP01WPzOLcZHwD2SKRqiOXtm/uarTkx58bhxqAMcgAhyrvaURQQUX6izEu6QyyRtX29ZdugfF3cXypGKmJ/nx+N2tExxYKZIwllmmc1jiUDM5AYDA2W8nFERVQg4ALUAtHsnz932i7NwNpYqjBO7xiTuu/mDtvQzkIxMVeEi1xxmODkZxUmC9A8XZvFPU6u7AHceQUCxKojVd7Nls60fWOzHPUqZwAYfFYE+wSkqx0FOFEYkSLZKc12XUvWdq2hQElaMZQfwc4ezZBFACdIkaXuEuOcXL3aFZf2+ZKBea3bK0QWxanQP1imRuUC+aEqRWfBqAnp7YrawzdjsqgcHGVDfkkgy2vs0GtQw7Xud83viKYUAVycVJHJ+ai9cYoyc9hfhMSvMgU89ZFpe2x3LdXU5AFDwQq8K4XUad1Xu7Bjo3ibYDDRKM50QlybmsWimQHIXcfvjk3U2PtjMt1UPMwM0Wo1z2ocVQWmDwWKU6me8ieEx84MpVlQJg8pREpZe/QbHUFEBQCLtTkagKqrM1mujvPC5QBDHYeHQ5gKGUwG5KYUH8a0ifycO6RpQ23BGLQ811h44KaSJFXArcdleecaswYUHvUpoALIhsHL52Hpc7gVnYbMtaq54NW8NuuAeg+rUkXYRbww//pGv2UEYKLq8UjC+jri9v0HNlOkJ1eaMJZFcPaqzJvlPdT8QSy9yL1lPgxhwL8zULCpPBLb4U+jNZIVcf/WGluLwuk6ewDkAMOuPBZ1ACnBZaLMkzCpbWoU24YwZacyjzfGy1Cm9AIcBbj08KrzEOepzlFdYMIuXZ8g0FK1ky8dmraTw1I6ZDhLLpXt8dvW2A1r5IbTJLWqsu9YkWU+nOhDQStS7s6dCYdRQDxQtONktedULs8Yi2TD9zUW7eZehavy+JGlyFx9IBqtALUexenOjQIq18ZVKH46lK+zXx/JgkK1LnhfUaZk71brqN6VGbEy0sRqQ34ND7MTaHSv7p+CDRGoTlBpGamzPgp8nvhmHwkCBJEBskrtECzLPl9aaqCQiDikZZLqDjDHpyP2wRncjyKakPLkPKuJle2mjWYdDXzm5PjVEYsUIwCYtltwPPS2ogCSdRejE4ssnHcuUcMyWs8V0dTRjGXGuH4KjMNp7ss+Q423ikdgZojSxEbpgUBji9cPpe0EjniP6ussftJ8ZM6VDuwj5qemRq53j6PQ5R6YxsHq415zB3KxAEDfvACSjURJefQshbyWvNzeSoC9RyJWMk4PWajSxWVCIXf5pyME8nUnpuyebWTL08VEJRFK1BrAdfjCGaU7q6EEwOW+KhJ2y433Kfi1rrC8R1WBKbYZpP5LTnEr1vIEducbBy9ZDjtPdl9Qo+LZE3cGEZUyQHeovbzzZCQyM8QBVS6Ah0qiDK4xMk/Un/L3lK/QmBsiXT+QgWuj1kbtTBmEUy2K5KDipDBo3gMYNLsYys5dW+pxqqMwcW0BPo+y996FrF2cUYMMgY1Jc67QQRSpcQR3WeYJcrmqAlNZaS6iwuQle7SIc+SHvkyBz8mhWZAWhzuLlIx7dvtmqrS21KEsCZOrhbufLKB8ws6VyEdvE3vtH4chksskea7UzBtxbGzrwIYE4STnNCL5b8OYLMHhWyf1lfeTuR/ncymwhl05QgHTBxQkKWNxpY+qArMSUYng/XEKCBBVifnB/oL9hnYz+N6JtqvTTokalZI9gkpYQycQt3JVXglHMygrAupEsc6e3j9iWUrpFGDXd62xjH2jL4QPWaYHldogWRm/qixiFfrKTXfvtlrris87G1lZFnlk44cXzfpndV5Vl/aKq1PdOzoIwl54DsoaWCa0xjQRlV+/N2oDtEaTRltEjsTQZm/bFLc92HkuqCwLm8NFVa449OX5UC499Qh6rz9kh2nV4lE5FoYSVZZ+0zp6IHTiwpVZg6yV00PNOsRq+xp9u3UdrdEILoiaxUAHUnFKDeIoVEHweXlGuPirVBeYC+NQVME1WEIefhJRydobRzOWxiMTlguNJettp6zhBiIq+DaB4uJnscQzJc3m6fz1q4PjNkXFcoj6TFVoN8fz9q3tSesk41ABhCBoWbZGeMn9fTjV6+EiYtf8y5AwdgBPzymqyouS+6twVBmYYliBjxOI8eryiEqCGpVBG5wt0mp0HvEJO0MDuX1rk23sUgVZMDRRTrWPIIoRt8NDOTt4cRZfLbQHkHy6gO1pKdluKq6JeQA4mU5FZ07d0kYlF6xXCp4QdBh4fzCkTpSMF0pdjaO6wGSicmPJSA9USdWoKMQkmytsRy8V7AWooYRv1CPWGcY7s6MzaQ9tozxcskp+Uy4QmAMSpQKskGL5HxEy9ybhEm+cytosCe9K7FYpYjI8aw/fmLTmCLIRRbQOub8L9tvZQEJzYd51+UzhEDk5RC+CkQX3nhtn9ZHwswhTVWBWlt4p7dgFAotyQ6UclIkyFFmwJ587RyUUlEiiV5z+PnUkKD96ZxttR/H/OecBNiomgLThEM4G+VZ1peX8F1JfPa4YIVn7zFAEoFArA9tMkCvkh+O2rRtte2PU9aNdhzNhD8Csq8eUiSctCQJOlxtIk8FmlscdREWIfnadV+T90jPav+Qwffy1YlFpNL/aGs/2ble8k8w5ygpqif7Pzmds/0eKXNAZxPXnkcEeR5NEvvLbstI6luvBHJTVFyMDYaZEmgu1KLs68Oag3FDqw/3nrLE2QbucGeKVIYplGTuOoTxyNVkiE3Gg3p7+SPanincXQl2Oe3zJxfmSP1s1YEJuLlJRItHi0vSk3XVDiyvOlU0nB3ZXR6O9emicFqhq5Um+DjyuKARgwVR+4JpGudd6v7SHkq6cnKPymhCnzdF9ZH2D2uGgsAFktS9voDGij6vuJnok9NINW7aWxMcsScw/elv9exqIBOEoYF7iOuIcK32sHjBxjUWQhyVK/2ZzBWuHXe3aLIcoVMdixpMoEyzWhycnkV1qdQ0lokUqLyfIY1homQiJBO95RhGR2XDlB99XzsWWvPwcDA5kOyYGWQCuvxBxziiZe1ta81YvTRwAyYne3kgnzKTugxYLwiky8sLFkD13gnngWZJGju7kTKsq+2OuiCdVlZlXvOPChyAvk5a/Eqojlvj6oVE7e4kGKtIEUZLUq+93bu2xG2h8JJYWo+xAgWVWkYXX4stTFDxX3n+W7er7ykPUUjlPWQGVz/VckGajhGmSulxrGhDm4HDRjk6G3eYCMq1yDKIFhFIGvMJocr9P4Ap8/cgU7FYKHSKB79z4VoEquTErtkqHEr4U2PVgTXFkZIZGEif7523H2jaaUWVch6pNdVn7A2pUfvTKOMoJ3ZCdrwgWdxU7LmjJLU0X2Li/n+Cq24HBfRb8udwZkYfy1OEypvBVqQ45STN/ADM+VbJMZ8Tq4SB5NG71onf+IRQmDeGsegiRhxuJoPwQGVLrHGX1i+5X4/BWazNUTVnZ3+3ltP3pY2vt5n009K+N0H4sDuaTzi8XIL7baZovnRmmKzMsTWy0BHtzIUOenRNfz1o5lKkiX7he77DRoEc8rFDmEQ+XrMqzvg9O12sBXjlISD8+9yhPLyN/0bMdhdYgI7tIkI5DvXkFClzLHMlKMeaozeBens4UKWMv2a+Olq3fb+Ec6IM6zI/LFt3dVubPqlGmY1RQ566tbfbvHt1pDfUjKD5BzC+oEaHkCCi1Ev1vwm1W1kKy2KqxdDDABhQAZbJUACVgqoNHiWcHTE50FMl5yhQECpzKZ3weNPDnWfJTX+lz99B9dNGF96CK2ptGQSYBWll3Gl+RR7wmTs5Qgd61DXaBTPX+c/qdUGsBwXi1kseqAdN1+MCD0t1NhTW9QxU7lOgqA2Cn5IDhiqiUAZ5ydERRkp16KEThdvQBoIrsy7h337OOysPWOcCFP3wARQWARbHi3NDHQAso0wGQzyss2l2P9wK8/sguVk5PjF4IEbWMdgcdEchEKGG2CO7q39DSRADayMeF/yrM5u69cPZKPa0eMJGXZdiokeCFZ1MNmEnb4C3rldfiKqdKbI/FKYmqhPCEpgQY/RNF6UOZB5zlgOcaTwBALbC+lp9fQHWUJvOF7yoUqAVWAIArOcUzuC735TMlQetz/VaBABdchnXK+Q49AmBsX2Kb0sbxLANYpD/ykl7TfCeMBIF0gxU+Vg2YoiztXaJoPcsP65KxTXUGa/Hu6RxxQaApQApQrLcDgs4D0G7hHfUEQHRUyFIKBDqPF8GzMECIAXWLTTvoLCxwRXbqrX7jEAHk8aFy+YMdo+RzcQZFSyLYtjG+UzP+esyTne1h+h4hW8GcknZg4DkIwHM/xrIaTqDVA6bUeOSQdgkoFFF4VGSDZjszV7S/e37I3j5Br2lHSSwMipIDJlQTZC44CARgESd1EOGPqFfHwgeizIqjPqilDL7W94Bp4c3C6Xrnfg9b1zUXrgFpUqAL0sH2a3E/Sgnb0ZM3YgHW0MAcMCz1MyGlo3zd1F195d0GqwhM+KqWQZ4gARa1n5fYahggJAzn1X5G7Eo2AF846tFCsZg6HObzh18GR7D6AfAq0OAzLfQClILzFv4GnwdvPgarXvBFAPiA6uO4GEt0h1aW4RwsQtHMPPFXNcVXbpOHmcIAGZ+cBtLR4QALiLpwqxV7WjVgisWC1qQ0kj3uBVVZHo72ENETFRSpJ3yBrR3dQst5jTIkNuYaKqI46R8fsnBMAYqWKYCm5M53xCHlSUAV1PhaSckBAoh1CgVkC8oJod8uvAVRxGCdpQjguAJyEcaKg5+UJW4jZYzzodI8bNdxeoCnLTBE6crvUa2mz71X41g1YAo4ZdR8UZoiIdooxlfeKauAmHJLo7xV0ofFjQGMHO1KU2TIkn985yIpokjBDIAXVMGj/DiSnBWBieNhCqvpA23PMgBC6Sk+QJVHR9Sn+wtBXCNoIC2/r/ZBcdsgOgyACmlxKuBFkKdFXI0Ksns8iA3gt1U6jBo1Eb4TW+H6AVVzLb1d4WPVgCkw6QgTs4xEWXQWRiwqLBMF6ARlBElEkihQyUIsKoCqzUFNUEpOwCcVHeZnDdE562YHh51001zbkrSejjb2+6T3D9+L9pw5I0WGS83kfRtLle0izYP7R9I2PJmykfF6m4PMUuz4I2e62mxbgTxb6kLUs4fujoyMz0C2iDaGQ+HJgyDaa0y5P4E5IzRc3WPVgBmCkiAONEHCXshHHHpgPsY4yUIkN1KMA7BR/xUh8XCxiRq1P5cyFpT01d2Ytm3rE7Z7Q73d0NVOI4gwwBPouC6LLBbpUz7o42HSfh1R8nTloldrM21Ko0eh1EjKZ52N0cr0zFDGDvVHyaGNU7nFFhnI8FJ0HmcBTn6ovwxVum0c8Uy51qZ0yQwjG5WCqZyhiqLlwMm8BNqVJs5VA6ZkjA6xxzCtq9Q5XfYdHAsA8B1yUZSoI0xNZS1ss70lRrfMku3Z3Gy38VhDe+yEytc5XxVeHlSj60IvXENsVJQj4NIyRhTEZcX+iso5QrCK3UbjZVtPIHr9hojd2xe34bmSHcLhf4AyipMTCd7z+yxtcWDP2uQth482z+/DebVO4/pcJ5DRQpbVPVYPmFpoVkHAc528AKryZaX81MMSa9A40lEaNCEH+zAF7tqcoJlEjW3vqbEGUkpgsijAIgF8qQKU2DGsEZiyqLyX4e8UFtEoQlfashQr6UzcC5RxD6xEZKDOx9uKdtqNN6qNLIJbAezF4ZS9SV7P4f6yDVDKoDYWYbiF0ixpbwidq00+4+BdRUaK26zWsWrADNgSdARQncyBZQXUKiMdRou7rIfk6Ptu77Z79zXYDjY+a0XT9cgEENsU/ckhLldbCdbs4/JLwUpnUkUbpXhkIu2TcK0GjfLXAjjswRgcoAZOTA9f92jA71sjy4Koh8hWniIpVUmun6Deso0SvU04B06u8djH0rc3z8/b6Bw/xqZ0O0mAHEIMsdoAQQRkDgGU66z0sWrAVCcrlZFnkV1Z2nMmjDYrsD1tMJqHGm/ckbQ/e2Cj7dlAWkmdOlCipRLPlO9WVCWnuuSePEVH+3N29CK9zkd9m5rNUaVMUwjWlS7e1H84HdOFt7TzbAhFK0GzjHoA2MFelWuaEtbbHbKtnTXWTTl8Ek1YipgyHhRorqcY+MbuGutrjtkudvd77hQXRhYr1KWAOSqbe7jCIMbjo3XDyHmsPImuGjCdhBFvwkkd0QPsltoSp7/en9zTapvWt1l3k1q6oBjhJZJ5oKaKWbZEzECcJ8/O2gvvDbMXiE8HLhQmKDANUmiLRmd7ynyBhwcuNj1X3IYgg9gk9aBHobDwQNwaKYhtTEzaZho83UPTqR1tapGWZTxZ8mEhXcZZG5tlA7ay9dY30N8dKCdUVCtEkQNf2jcz4rraNlm21Wqw29UDpox8DIcIfC1Kc92YPCjYea1s3PJ7+7pxatMHQAqNX8cCQQGw4zkaB751qmy/ePG4vX8ybXOFZpaSSiuUI5kNrlOE7BAAiVrltu7Q9h2KhWbiuAehJNd8Sjau/rH4+dKc2wViip5/p2HNL58rGM1Q7Ju7G+kxn4C1I2vxAoUjUBxyt69xih0QoHrahSfobV7AAa9MBbV1K/O9h3IUIc1F/Q5c1RmzXKlj9YApFVCRDFin7+pNlKyljcjJLg9rgw+okfLxQiFvUxnK1gfC9sybF9mpYdIms5QKWCvmoHJzoCAMd4gENgxd0J5GW3BE4ig0JIA5BQvANWD0i+VmYI9ZlKaiMrcAskwfdtLk12nAT88ixvQuLVZPDU3Z7rUJe2x7DQ2HZ3Gqa5vJBJSaRe9OWwzgywtVYLwFkKOA3akeDuIurvXMynNZxrVqB1TC4kYwOyIshOuPI+1WAGVBPOw7mRTnx8bsmffG2Blw1s5Nouwo0sIZMWSnmuUXAU4SoHbUhyiQzVtrY4jNwZOU44Up+pHME+GKWknrxJ6czoZsnHalw7MllBkSn+dTNkhtSA4BGwZYalEORCyN52j/+ZKdHpm1u7abPbg+ZH1kHaihRcGr594YU1Chtm70QQB5poKEbYDqzKqVh+aqAVNRyDDNextraLEtIhRWw3Il42Kw0wyU+dbJEfvJ8xftzaMpm9bGoHhi4HUsGpTA7ztriWB04fmBgjZ0JWxjK5kJdXQQ0awEQMkx/eN8p9GK/cqdJ28PHGGM7IDBCbxB4759NJy3Y/TKHaHdtho+SQ5iiNggQdanDlHZNRy1h3aRAN2jJhS4A6F+Ls+hndxxNIZmSZxmXOxkqMSylQclSKvhrMYhhaGX3dhvv30ti55iseU7FZMqGURDHcq4/b8XxumBoDIAOmPKfYa2K02xrc63O7bX2ze21tlWsvfWkN8aQ1Y6gAFmaSbaS5oX/GdZgatsTw9kUfN97WbbwG7ntY1Gc0ZY7bqkjeAcOMlGr/v7PfbjpHEinN71WQA4HnL30GDRhtj/bAJqfmRDyOrVTo3/4TxcgpK/DZ1l+hrF3M5/6Lrcm5uu8FHVvNkIFKBIg4y3OOy0SBTEUGwEyO62lP3V93bbwzuo+0cBEiFFoJoZ9sD8h+dG7Ue/JvVylLIBBaipe1Rme11sGpYXsT9/tMee2BOz3R1JKsbUVBEAUSsicsCV7pZRgW4FrFxzXq4hZ4LccpJxArOSF2ReaAvJMIpLDXtUdDd4riH/xlbGCd6M48P1YfVFlBzt/pBmQ5lLdA8pYtasI/EsjB9XTarUraQxmgXAZTs/g62LPNV+nIqmqNBI+pmc93Js4FUGxUCgKtBuVYEpD7czQVA4nEOAxWR2TDxtf/Gdrfb9u7usMYJzG9sP28SmocB/fGXS/v7ZYeufF+ZTMgAUwvhpW5vn7M8f7LE/faTTtq8vWn0C+YUXJgxA1NlZm5crm08x0BydI8dmInZx0uz8eMHOT+ZtDCBMsz1GDqzxOT8CkoFjaLdEPlCcHIjRiBvJXF9Tn7ctaLKNZBQMj2VsEkWpzAZs8gGlwIRzXBMMgq2jMYMIWdh/iFY4HbV4o1C0tFlsjiSwMpqwsiVcQyetBfMJc/9qAbOqbFZGdwQScFoeCxhC/ihK9fBt7fZ7t/VYE45sHy1RJXTpQsR++fq4/c3TgyQX42XBeDefpg94gXZ2hOwvHttCCUMdRn0KXylQIHJSptNHNpzBhIna6GydHbpQa4c+GrYzA2M2MmPs+4VDAk1Xe2WLtYaJdTWyq21nTcQ2dpZs1ybPNvWyuyyIFOMhCoM5ABjf1lD99YOdCetpbra/e33ETs0lLKd2JVB2Lt9hvzw4ZU0A8r49DVBbBkrXTgk5e2xr2AamKPU/zzsCA2Wc+R6cJYRMFeNVrrBD8Cqw4KoCU/Iq6E+ADQhmyoW3c03cnri317raxTrlulM4KWRvHyjaT568ZFNzTBVAQgvssBey3X1h+6+P32C39kahgDSl8yw8CKLUyXG6RB4lfPUbNhD/4MhZO0dYS79U1pwUEy6L9IJquDc/E5RkVNgQ3UgPn8va0/3T1kxb7zvXhih5b7PNjXncfXOOPTuKIuKyl2q07vsa7R/eTtkryFT1WcdqZeunWvunA5fMq0vYA2sxV9Bs1Xc9CfI8tg3TZmLazqXRdBWsRqYG8ltmi8OHKoASZF3yvibXGJZYoKvFxDYDoXGQh+yH97bbt+/oYF35jH8y748NePa//v6sHUbJUGqj5KSHa+0Wqpb/+xM30vkDGYPckmIThSVm6Azy/mjJfvbenP3kpRl7m2qxkazsyDpkL9okCyYvj5Oa2IBhR8VowWiZbh9s1yaUczBFsukkSlYZl2DGppCRNbE4PWjJsoeT4O5FU81aI0jV25201HzehqcxY9z10YhBjItjKetrjbHBKQgrxYexN9UQ0GPIAwOwfImYCNxE6AkiMAoNjsfyH1UFpoDivCDICjGXvX0x+8vvbrU1JH7L9aXPJtnA9H/+5DQdSOirhxBzk0axuHtb0v7bD3ZSroAaA/Uqd7YElCYxHZ47MG3/5+VRe/74tHMoSEFS+iNL6YAomSiBqNYw2stZ2w7LjhV3CBY8cPM5s0U/gRZnkecnJop2YZyr8Jv2WlgyiOUTHssRPG9IsvclmwbMpiJ2AU9REcSIQHUzNLeYSedsU6eQAC0aL4VC2W3NURscKTkuILsTPsOdlJX/bxSYsu+iUFMR/2aY3jr/md3i792l3YhQApRHQz7NT185a3/7Mn2BSOJK4gnyCQLv6fPsr7672fZtIIYI4yTWjFOdBhDIwb97c8h++tqInR+qxXOELJIXR6SIt+dyhcvl94BMMgbV9cttUSHkElWg6UoRU46Qz+IL4Eq4Ft1MII9PozApAtPZFKMXrdxycATGIOWotjFKCWLOZthW2GPM6p4yDqnWMO5NdOqMcE4cEdCIb9draKWsvmBpHCGu2S7Al6PEcQ5Au9yHQ+blvmjlej5qucwB2R034KR+fG8zMkWBKxWqltiZKI8ZMsBeKE0os3KPYTMit/7koSbbvV40xNKjtCjQfJ5oyN++MGr/8noWoNY6Fggs3ML4ykrgXAHKAYu/uqce+oR3jt1Lfutf8AEwZWwus14XAqA+Mq+MPTsF9T3/Ucb+5mDEzlJLIlbpqyoaTXVz87w9vjmHEoXmrMYVIIo01/f7aXp4kbtJ6QJZSyDDNvzMe7sxWDkinCMW7Fx97pPl/1NVYCro7OP+8lAkvvfgjdbZxpb1qPQxWoWqm8dTL5+2/lHtuENWO2wwHAvbQ3f0slXjOqvHPYfNQYUYJgW+2F++PGkvvjFu8ymBmAcs02WkSxgLOtJ2ADpg4VEBq77TUQFpcG7l++A7/QWN+KHsUmX5Keshzb5mH9I65Bf70zbN5xGJhXANiWK+3URruFvW4oaUHxgqjBXokoly9MGAjwYtuxd2yvxqcUzcsrkVU0zxUq2D7hWMQa+W+6guMKEMUUNfm2eP3NSF+ZEDa8FoungcPzVLbWOKuCOleiRIyTDfhMb6yK2tNFQiJ4/OyepFN5vL2LM0yf/Za/NsMtPoALnci+CuV4E7zwp0sx0uobeYvXKmxl48qFCYJLx2VfJoUpG27+xIkHck+aicAxJcaAj1IU6OE7gGFX0rq700joyNDQXbrm2qQD6JFz2qdVQVmIQZ4JUFe/SOPiaF+q4OImBzAcf0y++P28Ask8OzIiUjjj354N5au7mvFoUHLTIEy+P58EDRfvzsCL3V8Z1wrmt5uuyrAQSdclRh1VAoIPLofqkWo8/sD9s7dLMuYSTjincOh3V18/bgFr1OYU/CPnlcQoVVL/Z57WzEe7Vma4/SVBH/cVTauCNNJiU2UIWjqsCEy2KOFGGb69mNncIaPOohXHr9EyV791zK5jLCUtxeaHubKGp9dO8agsJKnIKFYrRP4bH50ZODdn5K+bIMVVZxNdZB7FmUqT88VA7hQlmwxhj4OEWbtZ8fnMeThNaMR4pgHacV7Z712niHPnnSasRxIMljo1kHVPmnpPzV4BTZ1FQkqwHnPOcoslKto6rAlHzYQsrFRsr2XItvFAit1+HzGUJLKrZRRp6wO0OEv448H3U1Z1H4Jzvt+Xembf8RFg8Fx2mtsL1A5izvclQkra7tZDH3d9l7rLsraCKwfWq2wV4/RStTsVu0Ycn8DvYGfXArO+mS5CWNOAR7HmJXwIFZzBkoWwklmnBHjW+9jQJ4EEpY3tF/crXqAhPS3LO1Bwe0cn1gPUTs0/NpO3Ju1iandWtWCypoZrf2b920ju18ce8x+RAmy+B4s/3sxRk8LTiraewrJ4BKBdSosDqHKEYLvgBQp2AJqTBroM5cocnexalxZgxlBqUnqBwjekMr0544wMedZ9i7GZpbnKWSOguihkBeQqiknBBYQL66rHfYb7WOZQCmFkCHFqPy4DPZZrDYnWh+SdhjngZJSqgahlWdujDvkp0x7TgvQyvQmG3tS2Kco2Jorqjxr747Zyfx8iitRPaqT2KV8lZdeQKnLO+hOXwWSQLAOkiWmlDSyIBHLLwzSoI0nh/XpB8u0kgvhhs7aGwRmoL7qH6znsYWavZYssmEqJa0GILkPQTOO10DjCAmu7zjD662DMCsDKsCyMp75GVtzNZ1Njqvh9PjAIrSIEfG2QwGeSLgq0Ru7w2YInhcIEs0STRY0Pntg6eRTQoqSynRMD+72J/cp7qvmJfTREWdPp04i0RfCI0xbiVBR7Clt69nNz5irTJ5pL1PkEg9g31aRomTWNEOt011NLpAyauGmKjMfxmBWbnkJ8+dDUnXO0fhpqg8LUiRsRnCUTgAtECaZJLZ3kIP7QhKRIRQUpzsu0GiDv2jONWpvJWWKMefAK/FWvFDvlUc5c7NiA06gW92gmzAEGGYGHLTo7Svm9KIRuxnNzw4UobpDdGpRLZlEZZcIhRDdMwSsFu3i0OVJlFVYHY0soU9RnaIiarkAGRlkhkoTzJHmh3NHXBir8cN5urgoUzFmA+encStBqXyOzmnnRoLHFcHmHALHBriLErjnMUxPzKrGk0Aw3jDaN9NqLztFCq5ckOQVNXVg3QicftqktUXw/nRWEMtDAapajoDqC8/RJcdmM57t0BBbY3U/qOJ5oljFijByuRo5UnVVUk1jpJ/uPQ6m0lnZD9NYbA6gBRJwzg/QiIzbjEZ2AFzlfcEFqWLr/She8JBxEkEULViG0Mfy5NFry2i9F0tLLaDLAVXNMzc3W66NHzSmDV+uQ1r5NcFcQXwas1i2YF5+Vo3gIpisWpXrrSNLDJnai5wbYnaFJJqJf1C2p7YmDTZPPUjY2SpFwh1KZ3D5W+wiFoYSZyVPmQbqp6lQlEkkNgUMj2HpgbeEY+l7oVxN9TKDAn0AJk1EwRphJwOdJKtJdWMCpjVm0VVgZnA5IjEkHfCYBniADQlgeLIV1hNg0EUA2msJALBVrEpyTqYJcSkDDp5UFT/yEoCQzHZlWe06vkjf63asWm8KjtMAZyCcpoAjFI9Gawl6DKm1BNHjQA17USGOI7ECaKGh9taw8U0q4OSSwZmsM4AY4Ehusou3sn7EyEHRu43pSjHCRArbUQYLbeAbDDDCRCrZYEoBgqTNlIm0pABg/PkAikaIekCV+NiavAk+RmAlE9W7HDOd42EMJ7qcEE9ywFIVV2jDlAXA+KRTtIIEirn1wEeLpPH/ah00CgAL5CPEoJD1UrJg5I1i2ocSwamBnUlKeBoiYkIqDESWSNQpx6OzThZAwKA1dogNUyRrM6J8iyXH9KT6fIdXT7cxIUrq8ZmxTU0AMajIQNAJW2JDtWLSFLR6WhwloB38N6NlXdMXmaV6yPEFcRt1NZNK1aNY1mAebWBKagMZ3IBWel4HlpdFCxVUFhuM61OAcETpaMymxZYFMAm4uTcSYWXWo8XxSExQBcnrmxTcbX7VeNzgcOxBC4uzVrcIcZgtIuCYrUqMVQpYBpXnuuaiVIn2RlRIjTzFOjUK0iSRevh+hFVY6Bcs2rA1ODTmCAF5IvK0oW9otKahJZHkNGMyjY1nbUspQE5wmL5vPy1BdcJWtwVlHYAV36r82Xrdyt8BO5DxsEhmQ18yN+F3lBmgk3ryBWCC8/CegMKZK6cW4OYUPRHapuTo8whz3zEdap1VBGYZZvNIB2RETBYJkG6I7k0LfWkkDAhNynQfAoHQUGCkZGoJD4Zj1lHM9QpUtSyCMN5qYdgu/Lg1NJrmQL1S/kQLfiaa2Rm4DSIS5aTujKdg53qLEGSQTaREB0Hmup34IwslKgUmjoWWNWOqgFTI56cy1NLySLIU4IsTMbjAIr+rADICR8+n5rK0+pTPQYEOtR8jOy1ZKrXSrtwy6N2FdCyWJaAqcVa6cMJRQETrRUnQUeyHGyDgexXxooqtydw8bm+Q4xNIkLdOGMEBqTpCpgFBp/mvAJzrNZRVWCOT6WoYlacTxiJrQWfbWO3dFUuB+YJZgiAHBqecB4iUYD+bVrf6foWOGACeCGzQ2iw3FFrtVbjqtcNlkk2ZyN18x0NcWxLzUs4iW1Muf0ELkqBW4dYa2cTNSqIDAXoZZqkMgUok7lI7l71Pkv7YsnAdJob8iA4RE1aeFgPGDhKBVCa2pGyXHpekzXRu6cDqmsmDRFDBUM6ZFPE7vefYhsMdemigZIU3d3djbQuFTWT+5pVkhUZ7hxSJFacNCktNHoskB8PZ/BocJy3tQSbo/hrY/hl09E2O5ZrsHSOzGpME5kv6u/e14hpRXJYhOwElf1N5BI85M8LZKqb0DL/qUBhmS8bXG5imt3vLtHDnB4DuUIGlpujk0fUuluVXSf3mApYI/b2oTM2xdYXPhnqxSxNQNkYdd/OpqDNNjUcPntsOvYqxHdelqoM94oXVdjNU1IPeBohEa2vLeK2YlTb1BLIGafF6tnhebZsrAVQojnP+Wk7SNPEqAQBWGIcJnNo7SnSSfSvWkdVgUnRs50dJJubkvEYWmyJVh9r2xK2fW0znzFRWGiY6q5Tl+bt7EQWbG/Ah0kDCXZO+PYda9hrS5F5DlIatUwBewqov1oL8rnrSiI4jhCzNjbS2dkF5akiGyApKbtAj6DjbKiN24A0EUlVsgqaC1ZHpVhRpRdQZR5tXsW9jHIWcwAAEYZJREFUJMQjT6s3/qoCU/s6f3BiGKoDi8nAUz5pA1H5XevqrbUe9oWioA5dY+mYPffOJSaLQ76YJjOvSG6Nb4/f203ghBJAygicPIKdK1C9socKa3FowBFu7jbb1ga4ALBKL9QY7v1h3wbnFbcU1NHG8QjtbMexTu6PuAgGCr5cCnoJm2WwReV0r9ZR5ZUJ24n+OeKTzAuvQBSqS5Ibe9OWVtuM7FT3EDnbMwDrTdIuB2aVwZcgM6EJoIft9x/pZYcf1H+ZLgoGs2DSFFfyiFLEFKLeZH19xu7fGLMmMgS1C58y4OeRgc+cxsb0GyyB/PQQHT1Uc29tVkUZXAf5KYVnPBOzC2TjO48XcrdajLbKwJR5UrbX3u8nTQR3F2Ew3LNsrRin9CBJsFZREQ4oWNntL717iTxZLDl8tHnkVHd91v70m5usvYHtgZUkXUWsDgby+b/qPE01iT28lV5BLeQgwXLDUBgqkH14yezIBAoastOVMJBOeUO7Rxs4XYcEbvzRipwMUis6hCJYcRlUizarDkw1lHjtnY8sTf6MWk/IidDATvD33rzW2ui3o7imtJsZFJ83yKU9P0DXSCITZYxyWhDafdSmfOubGyxKAFibe0sqreShgPRt2zrtwe1UbkOVIQCXBKnmqRF8jR395FCHD5O7xH6b2J87KIVvRFESMKOEzvK5LAoSbXBQ9NxiowxV66jelRlxhEn7RE4+GMzYqwcmyVBHe1XkBKVg3/Y6u7OvEwOGIYQocSbctf9Cxn717iQxTzCfBhLpYi1bHRbtj29utEdvYj9qFMQSylSZgtkym8OUiWQoRKX9K+OifBSOMvm5gcYrZiZfKvQgWxXrvoxPUKLN2bPIN3XV0sPVe2J+SBwj7fgew4q83Sh9iHZvnrI/ugUNHECy6RFmFu5Hxv/seWowZ9iSsVDPbkgZzi2yXWTednVTIYooCUfRdCMZu5jrsv3jlCzAfTzu5TpbawhVOKpa0sfSsyxgLjmks+OD9vA9u/BrYjsiR8I8N7e12WvvnrQ5sBYISGm18fEZ2wQLXt+TxOFOAQ6UWNcUtXW9bewANG3DQ2r0pIbCqtcMFt/tjEfmm1IdQ2oooXoRp6Bg8YJQwlg5lMJikYqPyuCH+pV8LY26RHqKV2x253qRUc4vAKCy7VwXtb+8rcF62PnIbdhG9oNcdwdGyvazw54Nppu5Mhn6MQqJiGc+Tg7ttmbNb871L5Im+/Rh3w4NiRXL9hYn4v7MtRpHVYEZtIJBniA7ZlJp27iuzXasr4eS1D+n5LIMUsjUd05BmRwRucVgX+PpGdve207NCaUL+GhzKCGNJBJv6ai3qXSG/gQAFGcCpAhAACKao7pEq+Ozg7AWjOiFWLIkldvSieuophLiYGG1mMo70m+gRMk8aqqT2IzGNlBx0idv7SvbH98at51JJTgT8wEJwnjUL8wk7OcA6Mg4nEJIQyFxlHL8u9eTkb8FbZaEbnECVRqemKm3n33ArknlJj5DdOBgDjy4Qq/lP6oKTJGEU9lZ2AxyJZvK2u271lhzrRoyiVo829izzo6fG7B+KpDlKRGRXhzDREHG7trQTV4qTnoWM4RC1IWGu21TB2Ao2sREBjkLVWldxC7RiKVNal9O5Ra5B4sXBJeVQySqWFjEBQ2ENXfUquQyDyCoLqaTLlAPAJQnboraDvaUFvBVgx0BGKNkpP3rsZK9caHGNWJUUFqV1bvo8ffETfW2plYbuDJ2kGoOLvGz98t2cJI6UuEOY1ONpjiHgFqNo7rAlBqudAtsRSk6sxSoyjOyYxPeHbnqYDsNJHN1Q3FHToyTKMWExR6Rf+eGZ206TU7qug62aGKxuY4C1i3I4F19jdbexnIAhHn69+TIIperTRSo1Q/YmYDHKrJwQga3NRWrGtipfMdZ8rWqEDcKQOoZz+7esD1+k2/f2urZWrWF4YwIXKEApQ8VG+yp4yV74TStYSjydfkSiIuWxLz9gG2M93ZzHe5DIAxnQcz2XwzZ04cilDNIQcIdyLkCdKiErFfMk/sv91FdYLK46oMj1lJGq1U3yhTtzXb0dds6eqmHFebCU9LVUoP9WWdHTw6i9SoQ7blyhpNDAHRq1nrXNLLFFKkYyDwBIMribMCTtKu3ztaTDa9q5bksMjSbgtK4Cb8PIhgiCSGCipNI4oAUJbvALoCK0kRFCMNgPFF7bFfCvgcQ1QSxhpxY/Z5emS7GMUDr7x/TQOPFkzGbzcPKHWKR1Ax7/d2bkvbw5ij7bM5CfKouwaak89dPP8jZWfoGSeESV3fdNp1pJQQDaatwVBWYKj3XEQKQIUrGJf8m5ymSY8Fv7u2xmlpUDdZW6k9vp5pLRGkUMYknCADxmbadOEOB0YXRMVIyI9idaLJojQVYpgydOBTb04XHhbrOfXT76uyg4E67HUBpaoav7Hidqd47rrsXAExAIF38bneHbw9uC9u3d8ft4S0AkVYybXEq1WDngBw2StAZZDw5E6bTSMZeP1Nrefrusfet4yjCiW9vC9n3d/jWhCaunglSrkbZf/qpo0VKACkHhA1H0Rc8HuqsouInt0cnV2B2PJb3qPKWixpwhZ1ALfJLwvYa62vsr/9wj/3w/la6T9KqBUUE7mnDZLv/j6eO2T89f9GyGWpTQAZ6i9AatkiitNl/emiLfXNvEwVG1HYoIYxgb1lKCxRUBAFKVDtncThM0TBCZRDjtEZTWmSG8/AOY9/C1imtayEtshG3YpyxKBrXVJjmLmFYomxIUj6QDFPlVvaSLto/vztrZ6fZXghHeRJlJws9x9gZ/rFts/bD3W3WlZgl+kNPXFh4mjrTV8579uMP6OSVlU2twLrW4HLAiSovf8/bZTqqSpnBoD8ZuHJilL2XY1viUyODdsOWbttIHx6xP/U4qCNctG1Ts6XmKKEbGsOeY0EoWYhgEvCRvXPiok2OZ62zq4kdFPDZEkf06MueI4KRpo1bCYzwCD8l4gVrw63W1xxmewwKe9qjdHqepcVLBu8MWjTUmQAZoi6VM2dznppdRK0GRChwrzOpBMrLuD3z7jjZ6y1wiTkAP4kJQ2Ia7b7v6yvYH+2MW1uSaAnpInm0WhlRx+hE/ctDOTszV7PApq8EpU/W40rfLuWzFQDmJ8NTGZwAKlqdmsvY4KVp29m32drxZYbAeomUBhzVuzYjuMgJ6h+leZJKGUAANX7KoDwcHyjYO0eH8KjAumM4DTDmVbwTY1Gj+HDDACRMCbrYpZwJao6vhr55XHCuBzt3V36rKtJkwPsY8yHSP9N4oM5nPHvuXMh+tD9rbw+QvY6qrLFKFBRwVLRg936nr2g/2K12qJgsVKapfUwJ7fXMfMx+caxoH441IDeVVSizaGWPFQUm6+fYrJ4TcMmB8TJ9d2gV09tiXfSJLSi9BDpooLX3TVu7DRFokxMTNCTEpytHA2xatqJ2iD90KsdjBsqhgRJALGKa0IUArwus2aV0Ip9g0j5ySpKzUkqgplF5rjXPfUZRMvvJdDg5lLNXThfsJwdRck7TuRIWqWIln9bfJTIGFWhf22T2nW0l+10aMXayr0qG9BEBOsaYhmYT9tMjvr0+SK9ZfgPvd4r0yoKSpa3uNsUV3NS0F44FTU5xPflpFRL67o1t9hc/pIHTdpSasmKDUhZQRJBTbx/P0Jxi2F47OMoeI0px5JpQlABmyKoE12tiL6cu2OnGFp6pXWmoo4SutkwJXZCzE0JpKpNYncOro2z5GYA1huP7Eu3ZRihkujhDZZcaNWFGqE2NZLU4iFrDN9O08cZ1MXtws0frtYLVOyBKFqqYKGxnociff1i0188nkLlyZGCigFwlVNjLZl2ZfVWfVw2YgemApoFdiJFid9zQYP/xiY129y48MrjZIuTOhGCXCo9dnMjZbw6qG/Q4/XaGkblUU9NgUAsX5NJq4Uj8YvFj+EUTWA+quEqq7E5aJN/SjZ2IDewaQOZhqxkQhbQcPpdcJoNQiVesfoGLyA5M4i7sa43bg7DVvRugRmQw4hjFizQQjP8ciHh6NGo/PzRnbw+z6bjbQBwEhK3LD+scBVUF3ecvvmrATJBPK9lSIDHaQilXLbaLDWj+/PHt9tjebhzsotBZm+H7khKhWPwBPEOvHJuzX782aB9dzEMJckhgxLBTvGvtJtAgX4MuzUqk4msQRc8y5yEnHnJWyPiQni2/sT5Hw2R7C1otEnP16SUbtruIXd7WU7Z11MI04WstgSwpMuzVGbOIk/83Q7DlQ76NjKhtDFtEkkbqsElZCQ5F9LyyR5WBefXJyCR3nTcWFljLLdutqbHO/su3eu0PMEMaEnNQoIxxxTfVwxXgoKhM0IXk1ZOzNFzqtyPnU5bhfRRFJMu1XLNid1suRggKMuLSyFuAKOeeoxioFezgLPr6CCEwjepBnRvbfbt3e5zuYBFMF+1YAnVDsTImCsp05vozsOsXT5fsF0dyNpymoQaK2cqDzU3wc39WDZisDIPRg6WCMqTp6rW6ejWw8Pfta7U/+/5m295KwjGmh4LERTwuKgNQ8Fpp5HmKjc7Rd+fd0/P2/plpG7mUxcOkzIWIsxuLLL48PxTgASp5fVCv8M8qwToBEBtoONzVUk9eT4TdaonMEAxvweEexWxRRxE1ZkzDTmtVAQw2naXn7JMncshHNF0aVgROua8KKFnG6ipAn0Oeyz64DJj6lIV3Dm8Rjdp/05lkAw30f/DwOrt3DyGxJpoNQgUFySwpNAC3zKLzpNRUgsBQLEWwEzgLRnHCj5JcPZdS6R3Ah7Jde23uUUe3jBZ2VmjHm9QGC62jbSobXHBvNcAAiJAuFg1sm99gh2ZonzbM9kUHRnx7CSf7+bFGx1bVMlVO+AAh9bz6xyoDUwsQYLaUF7epNwvuueJWPmfB4mgd+/qa7ZGbu2wPcmwdrdvizkkPFdO+jdPNJx1FclUJZKr3KGKjCiI+FF3GJeirY5bqXQCQmjEJSJ4eLkkZpUWsFDZdUGYAAFI6cxbX4sR0HucFjY3PzNqhsZjN03VEzff1e7Qc8ZHVh+BlI1hFYF42ik+9RC2RkIINuvgj8cYIvs1GAsR9681u3RS1PZtabVtPo7Xi5lNUo4QylQdwYWo7ZfKUIdUSlC08AYYuXCXqhaTd95KFSp+U79Y5EvhOO94WYcPT9FI4M+Hb8XG2qGJPzWOjFEClUY3p8ZdXHixeKokFkWWQacdNviLHVwiYn2C56jcU8nIlcqJStEVlBBgelwZkYA+l8+s66R20Lm47sAH7cNc10Rw/zm9k4ku38UlPEcWJJTsfaZ4cerFQ3qsUT7AtIBdzIMIsPeEvTczZqdE5NkNle0X2zRyj4X+W79TvR+G1POcq/1f6MZB1lP1VYrHCp68QMJ0A0phYdAWkpbwAFQAED4Sr0UESYHgoJAVkpcKEMWKO9cRDO+n00cU+itrCYm1bEpkY7EAUJ9gs/49+r1STAuQ5hzY8hdtukF49F6lAG5JDniZMU7Q+ncBRn4YtQ7+O8kKYIS5kpiwBIjERgOravoFc8gqVQCyu7Mb8VfjzFQLm0pZDMhc6I6Ihh0HMdfaowYEQRSNVwZJyXdX1JI2ilELGqoOWKrPEWtXi5atGZV9mNTSL6+KQZUMbX1eRJc1WG0+EkW2SoTBXR+mVDBwlgCk5GcuWH311KGupgLhugKmF0AY1MuLlVxVoJev0XImjOpYIJQqAgqGKe3XG9UCVmsV1BUzIENABK8lbAU0HAHP5N+4bvRcJu7MEZ+xPkMCd+G//z3UGTFiqACo4ikpFd446eXZUK4DpM7Fed5LoVh9eF8f1BUwHRQGJg9fu1QIVQqvB5/xd+EYnXUegvN7YLF4cgUquOAHSeXx4dkDDvHDbUDiK1SfYjQ7agPY6Ic7rizLxrQagE7A4FojUfagYCObJ5cdvDURH5Zdf4av1+voCZjXXFkCWR85W8w5Lvra0hK+P62QFvgbmdQJITeNrYF5HwPz/ODEnGQbhp6kAAAAASUVORK5CYII=;" vertex="1" parent="1">
          <mxGeometry x="770" y="290" width="37.53" height="50.26" as="geometry" />
        </mxCell>
        <mxCell id="FS2sx7Fmn0cglkPjXsAo-25" value="Data Source" style="text;strokeColor=none;align=center;fillColor=none;html=1;verticalAlign=middle;whiteSpace=wrap;rounded=0;" vertex="1" parent="1">
          <mxGeometry x="32.5" y="220" width="65" height="30" as="geometry" />
        </mxCell>
        <mxCell id="FS2sx7Fmn0cglkPjXsAo-26" value="Data Ingestion" style="text;html=1;align=center;verticalAlign=middle;resizable=0;points=[];autosize=1;strokeColor=none;fillColor=none;" vertex="1" parent="1">
          <mxGeometry x="160" y="30" width="100" height="30" as="geometry" />
        </mxCell>
        <mxCell id="FS2sx7Fmn0cglkPjXsAo-27" value="Raw data source" style="text;html=1;align=center;verticalAlign=middle;resizable=0;points=[];autosize=1;strokeColor=none;fillColor=none;" vertex="1" parent="1">
          <mxGeometry x="220" y="535" width="110" height="30" as="geometry" />
        </mxCell>
        <mxCell id="FS2sx7Fmn0cglkPjXsAo-28" value="Transformation" style="text;html=1;align=center;verticalAlign=middle;resizable=0;points=[];autosize=1;strokeColor=none;fillColor=none;" vertex="1" parent="1">
          <mxGeometry x="488" y="520" width="100" height="30" as="geometry" />
        </mxCell>
        <mxCell id="FS2sx7Fmn0cglkPjXsAo-29" value="Serving" style="text;html=1;align=center;verticalAlign=middle;resizable=0;points=[];autosize=1;strokeColor=none;fillColor=none;" vertex="1" parent="1">
          <mxGeometry x="650" y="300" width="60" height="30" as="geometry" />
        </mxCell>
        <mxCell id="FS2sx7Fmn0cglkPjXsAo-30" value="Reporting" style="text;html=1;align=center;verticalAlign=middle;resizable=0;points=[];autosize=1;strokeColor=none;fillColor=none;" vertex="1" parent="1">
          <mxGeometry x="630" width="80" height="30" as="geometry" />
        </mxCell>
      </root>
    </mxGraphModel>
  </diagram>
</mxfile>
